<svg width="139" height="18" viewBox="0 0 139 18" fill="none" xmlns="http://www.w3.org/2000/svg">
<path d="M2.16172 12.9603V13.6803H1.80172V12.9603H1.44172V7.92031H1.08172V2.52031H0.721719V1.44031H0.00171888V0.720312H4.32172V1.08031H3.96172V1.44031H2.88172V7.92031H3.24172V10.4403H2.88172V10.8003H3.24172V10.4403H3.60172V10.0803H3.96172V9.72031H4.32172V9.00031H4.68172V8.64031H5.04172V8.28031H5.40172V7.56031H5.76172V7.20031H6.12172V6.84031H6.48172V6.12031H6.84172V5.76031H7.20172V5.40031H7.56172V4.68031H7.92172V4.32031H8.28172V3.96031H8.64172V3.60031H9.00172V2.88031H9.36172V2.52031H9.72172V1.44031H8.64172V0.720312H12.2417V1.44031H11.5217V1.80031H10.8017V2.16031H10.4417V2.88031H10.0817V3.24031H9.72172V3.60031H9.36172V3.96031H9.00172V4.68031H8.64172V5.04031H8.28172V5.40031H7.92172V6.12031H7.56172V6.48031H7.20172V6.84031H6.84172V7.56031H6.48172V7.92031H6.12172V8.28031H5.76172V9.00031H5.40172V9.36031H5.04172V9.72031H4.68172V10.4403H4.32172V10.8003H3.96172V11.1603H3.60172V11.8803H3.24172V12.2403H2.88172V12.6003H2.52172V12.9603H2.16172ZM13.3252 2.88031V2.16031H13.6852V1.44031H14.0452V1.08031H15.8452V1.44031H15.4852V2.16031H15.1252V2.88031H13.3252ZM11.8852 12.9603V13.3203H10.0852V12.9603H9.72523V11.5203H10.0852V10.8003H10.4452V9.72031H10.8052V9.00031H11.1652V7.92031H11.5252V7.20031H11.8852V5.76031H11.5252V5.40031H11.1652V5.04031H12.9652V4.68031H14.0452V5.76031H13.6852V6.48031H13.3252V7.20031H12.9652V8.28031H12.6052V9.36031H12.2452V10.0803H11.8852V11.1603H11.5252V12.2403H12.6052V12.6003H12.2452V12.9603H11.8852ZM12.9652 12.2403H12.6052V11.8803H12.9652V11.5203H13.3252V11.1603H13.6852V11.5203H13.3252V11.8803H12.9652V12.2403ZM18.7302 12.9603V13.3203H15.4902V12.9603H14.7702V12.6003H14.4102V10.8003H14.7702V10.4403H15.4902V10.8003H15.8502V11.5203H15.4902V12.2403H15.8502V12.6003H16.2102V12.9603H17.2902V12.6003H18.0102V12.2403H18.3702V10.4403H18.0102V10.0803H17.6502V9.72031H17.2902V9.36031H16.9302V9.00031H16.5702V8.64031H16.2102V7.92031H15.8502V6.12031H16.2102V5.76031H16.5702V5.40031H16.9302V5.04031H17.6502V4.68031H19.4502V5.04031H20.5302V5.40031H20.8902V6.12031H21.2502V7.20031H20.8902V7.56031H19.8102V7.20031H19.4502V6.48031H19.8102V5.76031H19.4502V5.40031H18.0102V5.76031H17.2902V7.20031H17.6502V7.92031H18.3702V8.64031H18.7302V9.00031H19.0902V9.36031H19.4502V9.72031H19.8102V10.4403H20.1702V11.5203H19.8102V12.2403H19.4502V12.6003H19.0902V12.9603H18.7302ZM23.768 13.3203V13.6803H23.408V13.3203H22.328V12.9603H21.968V10.8003H22.328V10.0803H22.688V9.36031H23.048V8.28031H23.408V7.56031H23.768V6.84031H24.128V5.76031H23.768V5.40031H23.048V5.04031H24.848V4.68031H26.288V5.04031H25.928V6.12031H25.568V6.84031H25.208V7.56031H24.848V8.64031H24.488V9.36031H24.128V10.4403H23.768V11.5203H23.408V12.2403H23.768V12.6003H24.488V12.2403H25.208V11.8803H25.568V11.5203H25.928V11.1603H26.288V10.8003H26.648V10.0803H27.008V9.72031H27.368V9.36031H27.728V8.28031H28.088V7.20031H28.448V6.48031H28.808V5.40031H29.168V4.68031H30.968V5.04031H30.608V5.76031H30.248V6.84031H29.888V7.56031H29.528V8.64031H29.168V9.36031H28.808V10.4403H28.448V11.1603H28.088V12.2403H29.168V11.8803H29.528V11.5203H29.888V11.1603H30.248V11.5203H29.888V12.2403H29.528V12.6003H29.168V12.9603H28.448V13.3203H26.648V12.9603H26.288V11.8803H26.648V11.5203H27.008V11.1603H27.368V10.4403H27.008V10.8003H26.648V11.5203H26.288V11.8803H25.928V12.2403H25.568V12.6003H25.208V12.9603H24.488V13.3203H23.768ZM34.5688 12.9603V13.3203H32.4088V12.9603H32.0488V12.6003H31.6888V12.2403H31.3288V9.36031H31.6888V8.64031H32.0488V7.92031H32.4088V7.20031H32.7688V6.84031H33.1288V6.48031H33.4888V6.12031H33.8488V5.76031H34.2088V5.40031H34.9288V5.04031H36.0088V4.68031H37.8088V5.04031H38.8888V5.40031H39.2488V5.04031H40.3288V5.76031H39.9688V6.48031H39.6088V7.56031H39.2488V8.28031H38.8888V9.36031H38.5288V10.0803H38.1688V11.1603H37.8088V12.2403H38.8888V11.8803H39.2488V11.5203H39.6088V11.1603H39.9688V11.5203H39.6088V12.2403H39.2488V12.6003H38.5288V12.9603H38.1688V13.3203H36.3688V12.9603H36.0088V12.2403H36.3688V11.5203H36.7288V11.1603H36.3688V11.5203H36.0088V11.8803H35.6488V12.2403H35.2888V12.6003H34.9288V12.9603H34.5688ZM33.4888 12.2403H34.9288V11.8803H35.2888V11.5203H35.6488V11.1603H36.0088V10.8003H36.3688V10.4403H36.7288V9.72031H37.0888V9.00031H37.4488V7.92031H37.8088V7.20031H38.1688V5.76031H37.8088V5.40031H36.0088V5.76031H35.2888V6.12031H34.9288V6.48031H34.5688V6.84031H34.2088V7.56031H33.8488V7.92031H33.4888V9.00031H33.1288V11.8803H33.4888V12.2403ZM37.0888 10.4403H36.7288V10.8003H37.0888V10.4403ZM47.1695 0.360312V1.08031H46.8095V1.80031H46.4495V2.88031H46.0895V3.60031H45.7295V4.68031H45.3695V5.40031H45.0095V6.48031H44.6495V7.20031H44.2895V8.28031H43.9295V9.00031H43.5695V10.0803H43.2095V11.1603H42.8495V12.2403H43.9295V12.6003H43.5695V12.9603H43.2095V13.3203H41.4095V12.9603H41.0495V11.5203H41.4095V10.8003H41.7695V9.72031H42.1295V9.00031H42.4895V7.92031H42.8495V7.20031H43.2095V6.12031H43.5695V5.40031H43.9295V4.32031H44.2895V3.60031H44.6495V2.52031H45.0095V1.44031H44.2895V0.720312H46.4495V0.360312H47.1695ZM44.2895 12.2403H43.9295V11.8803H44.2895V11.5203H44.6495V11.1603H45.0095V11.5203H44.6495V11.8803H44.2895V12.2403ZM57.9786 9.36031H58.6986V9.00031H53.2986V9.36031H52.9386V9.72031H52.5786V10.4403H52.2186V10.8003H51.8586V11.1603H51.4986V12.6003H52.2186V13.3203H48.6186V12.9603H48.9786V12.6003H49.6986V12.2403H50.0586V11.8803H50.4186V11.5203H50.7786V10.8003H51.1386V10.4403H51.4986V10.0803H51.8586V9.72031H52.2186V9.00031H52.5786V8.64031H52.9386V8.28031H53.2986V7.56031H53.6586V7.20031H54.0186V6.84031H54.3786V6.12031H54.7386V5.76031H55.0986V5.40031H55.4586V5.04031H55.8186V4.32031H56.1786V3.96031H56.5386V3.60031H56.8986V2.88031H57.2586V2.52031H57.6186V2.16031H57.9786V1.44031H58.3386V1.08031H58.6986V0.720312H59.0586V0.000312328H59.4186V3.96031H59.7786V9.36031H60.1386V12.2403H60.4986V12.6003H60.8586V12.9603H61.2186V13.3203H56.8986V12.6003H57.9786V12.2403H58.3386V10.4403H57.9786V9.36031ZM54.0186 8.28031H57.9786V3.96031H57.6186V3.60031H57.2586V3.96031H56.8986V4.68031H56.5386V5.04031H56.1786V5.40031H55.8186V6.12031H55.4586V6.48031H55.0986V6.84031H54.7386V7.56031H54.3786V7.92031H54.0186V8.28031ZM64.1021 12.9603V13.3203H62.6621V12.6003H63.0221V11.8803H63.3821V10.8003H63.7421V10.0803H64.1021V9.00031H64.4621V7.92031H64.8221V7.20031H65.1821V5.76031H64.8221V5.40031H64.4621V5.04031H66.2621V4.68031H67.3421V5.76031H66.9821V6.48031H66.6221V6.84031H66.2621V7.20031H65.9021V7.92031H66.2621V7.56031H66.6221V6.84031H66.9821V6.48031H67.3421V6.12031H67.7021V5.76031H68.0621V5.40031H68.4221V5.04031H69.1421V4.68031H70.2221V5.04031H70.9421V6.84031H70.5821V7.20031H69.5021V6.84031H69.1421V6.12031H69.5021V5.76031H68.4221V6.12031H68.0621V6.48031H67.7021V6.84031H67.3421V7.20031H66.9821V7.56031H66.6221V8.28031H66.2621V8.64031H65.9021V9.36031H65.5421V10.4403H65.1821V11.1603H64.8221V12.2403H64.4621V12.9603H64.1021ZM74.9007 5.76031V6.12031H74.5407V6.84031H74.1807V7.92031H73.8207V8.64031H73.4607V9.72031H73.1007V10.8003H72.7407V11.8803H73.1007V12.2403H73.8207V11.8803H74.5407V11.5203H74.9007V11.8803H74.5407V12.2403H74.1807V12.6003H73.8207V12.9603H73.4607V13.3203H71.3007V12.9603H70.9407V11.1603H71.3007V10.0803H71.6607V9.36031H72.0207V8.28031H72.3807V7.56031H72.7407V6.48031H73.1007V5.40031H72.0207V5.04031H72.7407V4.68031H73.4607V4.32031H73.8207V3.96031H74.1807V3.60031H74.5407V3.24031H75.2607V2.88031H75.6207V2.52031H75.9807V3.24031H75.6207V3.96031H75.2607V4.68031H77.4207V5.40031H74.1807V5.76031H74.9007ZM88.2221 12.9603V13.3203H84.9821V12.9603H84.2621V12.6003H83.9021V12.2403H83.5421V11.8803H83.1821V11.5203H82.8221V11.1603H82.4621V10.4403H82.1021V6.12031H82.4621V5.40031H82.8221V4.68031H83.1821V3.96031H83.5421V3.60031H83.9021V2.88031H84.2621V2.52031H84.6221V2.16031H85.3421V1.80031H85.7021V1.44031H86.4221V1.08031H87.1421V0.720312H91.1021V1.08031H91.8221V1.44031H92.5421V1.80031H92.9021V2.16031H93.2621V3.24031H93.6221V2.16031H93.2621V1.80031H93.6221V1.44031H94.7021V2.16031H94.3421V3.24031H93.9821V4.32031H93.6221V5.04031H93.2621V5.40031H92.9021V4.32031H92.5421V2.88031H92.1821V2.52031H91.8221V2.16031H91.4621V1.80031H90.7421V1.44031H88.5821V1.80031H87.5021V2.16031H87.1421V2.52031H86.4221V2.88031H86.0621V3.24031H85.7021V3.96031H85.3421V4.32031H84.9821V5.04031H84.6221V5.76031H84.2621V7.20031H83.9021V10.0803H84.2621V10.8003H84.6221V11.5203H84.9821V11.8803H85.7021V12.2403H86.4221V12.6003H87.8621V12.2403H88.9421V11.8803H90.0221V11.5203H90.3821V11.1603H90.0221V10.8003H90.3821V9.72031H90.7421V7.92031H89.6621V7.20031H94.7021V7.56031H94.3421V7.92031H93.2621V8.28031H92.9021V8.64031H92.5421V9.72031H92.1821V10.4403H91.8221V11.5203H91.4621V12.2403H91.1021V13.3203H90.7421V12.9603H90.3821V12.6003H89.3021V12.9603H88.2221ZM90.7421 10.8003H90.3821V11.1603H90.7421V10.8003ZM98.6586 12.9603V13.3203H96.4986V12.9603H96.1386V12.6003H95.7786V12.2403H95.4186V9.36031H95.7786V8.64031H96.1386V7.92031H96.4986V7.20031H96.8586V6.84031H97.2186V6.48031H97.5786V6.12031H97.9386V5.76031H98.2986V5.40031H99.0186V5.04031H100.099V4.68031H101.899V5.04031H102.979V5.40031H103.339V5.04031H104.419V5.76031H104.059V6.48031H103.699V7.56031H103.339V8.28031H102.979V9.36031H102.619V10.0803H102.259V11.1603H101.899V12.2403H102.979V11.8803H103.339V11.5203H103.699V11.1603H104.059V11.5203H103.699V12.2403H103.339V12.6003H102.619V12.9603H102.259V13.3203H100.459V12.9603H100.099V12.2403H100.459V11.5203H100.819V11.1603H100.459V11.5203H100.099V11.8803H99.7386V12.2403H99.3786V12.6003H99.0186V12.9603H98.6586ZM97.5786 12.2403H99.0186V11.8803H99.3786V11.5203H99.7386V11.1603H100.099V10.8003H100.459V10.4403H100.819V9.72031H101.179V9.00031H101.539V7.92031H101.899V7.20031H102.259V5.76031H101.899V5.40031H100.099V5.76031H99.3786V6.12031H99.0186V6.48031H98.6586V6.84031H98.2986V7.56031H97.9386V7.92031H97.5786V9.00031H97.2186V11.8803H97.5786V12.2403ZM101.179 10.4403H100.819V10.8003H101.179V10.4403ZM111.259 0.360312V1.08031H110.899V1.80031H110.539V2.88031H110.179V3.60031H109.819V4.68031H109.459V5.40031H109.099V6.48031H108.739V7.20031H108.379V8.28031H108.019V9.00031H107.659V10.0803H107.299V11.1603H106.939V12.2403H108.019V12.6003H107.659V12.9603H107.299V13.3203H105.499V12.9603H105.139V11.5203H105.499V10.8003H105.859V9.72031H106.219V9.00031H106.579V7.92031H106.939V7.20031H107.299V6.12031H107.659V5.40031H108.019V4.32031H108.379V3.60031H108.739V2.52031H109.099V1.44031H108.379V0.720312H110.539V0.360312H111.259ZM108.379 12.2403H108.019V11.8803H108.379V11.5203H108.739V11.1603H109.099V11.5203H108.739V11.8803H108.379V12.2403ZM116.304 0.360312V1.08031H115.944V1.80031H115.584V2.88031H115.224V3.60031H114.864V4.68031H114.504V5.40031H114.144V6.48031H113.784V7.20031H113.424V8.28031H113.064V9.00031H112.704V10.0803H112.344V11.1603H111.984V12.2403H113.064V12.6003H112.704V12.9603H112.344V13.3203H110.544V12.9603H110.184V11.5203H110.544V10.8003H110.904V9.72031H111.264V9.00031H111.624V7.92031H111.984V7.20031H112.344V6.12031H112.704V5.40031H113.064V4.32031H113.424V3.60031H113.784V2.52031H114.144V1.44031H113.424V0.720312H115.584V0.360312H116.304ZM113.424 12.2403H113.064V11.8803H113.424V11.5203H113.784V11.1603H114.144V11.5203H113.784V11.8803H113.424V12.2403ZM121.709 11.1603V11.5203H121.349V11.8803H120.989V12.2403H120.629V12.6003H120.269V12.9603H119.909V13.3203H117.029V12.9603H116.309V12.6003H115.949V11.8803H115.589V10.8003H115.229V10.0803H115.589V8.28031H115.949V7.56031H116.309V6.84031H116.669V6.48031H117.029V6.12031H117.389V5.76031H117.749V5.40031H118.469V5.04031H119.189V4.68031H121.349V5.04031H122.069V5.40031H122.429V5.76031H122.789V6.84031H122.429V7.20031H122.069V7.56031H121.709V7.92031H121.349V8.28031H120.629V8.64031H119.189V9.00031H116.669V9.36031H117.029V10.4403H117.389V11.5203H117.749V11.8803H118.109V12.2403H120.269V11.8803H120.989V11.5203H121.349V11.1603H121.709ZM117.389 8.64031H117.749V8.28031H119.549V7.92031H120.269V7.56031H120.629V7.20031H120.989V6.84031H121.349V5.76031H120.989V5.40031H119.189V5.76031H118.829V6.12031H118.469V6.48031H118.109V7.20031H117.749V7.92031H117.389V8.64031ZM123.868 12.9603V13.3203H122.428V12.6003H122.788V11.8803H123.148V10.8003H123.508V10.0803H123.868V9.00031H124.228V7.92031H124.588V7.20031H124.948V5.76031H124.588V5.40031H124.228V5.04031H126.028V4.68031H127.108V5.76031H126.748V6.48031H126.388V6.84031H126.028V7.20031H125.668V7.92031H126.028V7.56031H126.388V6.84031H126.748V6.48031H127.108V6.12031H127.468V5.76031H127.828V5.40031H128.188V5.04031H128.908V4.68031H129.988V5.04031H130.708V6.84031H130.348V7.20031H129.268V6.84031H128.908V6.12031H129.268V5.76031H128.188V6.12031H127.828V6.48031H127.468V6.84031H127.108V7.20031H126.748V7.56031H126.388V8.28031H126.028V8.64031H125.668V9.36031H125.308V10.4403H124.948V11.1603H124.588V12.2403H124.228V12.9603H123.868ZM130.706 16.9203V17.2803H128.186V16.9203H127.826V15.8403H128.186V15.4803H128.546V15.1203H128.906V15.4803H129.626V16.5603H129.266V16.9203H129.626V16.5603H130.706V16.2003H131.426V15.8403H131.786V15.4803H132.146V15.1203H132.506V14.7603H132.866V14.4003H133.226V11.8803H132.866V8.64031H132.506V6.48031H132.146V5.76031H131.786V5.04031H132.866V4.68031H133.586V5.04031H133.946V6.84031H134.306V9.36031H134.666V12.6003H134.306V12.9603H134.666V12.6003H135.026V12.2403H135.386V11.8803H135.746V11.1603H136.106V10.8003H136.466V10.0803H136.826V9.36031H137.186V8.64031H137.546V7.56031H137.906V6.12031H137.186V5.04031H137.546V4.68031H138.626V5.04031H138.986V7.56031H138.626V8.64031H138.266V9.36031H137.906V9.72031H137.546V10.4403H137.186V10.8003H136.826V11.5203H136.466V11.8803H136.106V12.6003H135.746V12.9603H135.386V13.3203H135.026V13.6803H134.666V14.0403H134.306V14.4003H133.946V14.7603H133.586V15.1203H133.226V15.4803H132.866V15.8403H132.506V16.2003H132.146V16.5603H131.426V16.9203H130.706Z" fill="white"/>
</svg>
