<svg width="3388" height="467" viewBox="0 0 3388 467" fill="none" xmlns="http://www.w3.org/2000/svg">
<g filter="url(#filter0_d_4868_257)">
<path d="M189.742 340.47V350.141H93.0357V340.47H73.6943V330.799H64.0237V321.129H44.6823V301.787H35.0117V292.117H25.341V272.775H15.6703V234.093H5.99967V205.081H15.6703V156.727H25.341V127.715H35.0117V108.374H44.6823V98.7033H54.353V79.362H64.0237V69.6913H73.6943V60.0207H83.365V50.35H93.0357V40.6793H112.377V31.0087H131.718V21.338H151.06V11.6673H257.437V21.338H276.778V31.0087H286.449V40.6793H296.12V50.35H305.79V69.6913H315.461V50.35H305.79V40.6793H325.132V31.0087H344.473V50.35H334.802V79.362H325.132V108.374H315.461V137.386H296.12V98.7033H286.449V69.6913H276.778V60.0207H267.108V50.35H257.437V40.6793H247.766V31.0087H180.072V40.6793H160.73V50.35H141.389V60.0207H131.718V69.6913H122.048V79.362H112.377V98.7033H102.706V108.374H93.0357V127.715H83.365V147.057H73.6943V176.069H64.0237V263.105H73.6943V282.446H83.365V301.787H93.0357V311.458H102.706V321.129H131.718V330.799H189.742V321.129H218.754V311.458H228.425V301.787H247.766V292.117H257.437V282.446H267.108V292.117H257.437V301.787H247.766V311.458H238.096V321.129H228.425V330.799H209.084V340.47H189.742ZM334.878 340.47V350.141H296.195V330.799H305.866V311.458H315.536V282.446H325.207V263.105H334.878V234.093H344.548V205.081H354.219V185.739H363.89V147.057H354.219V137.386H344.548V127.715H392.902V118.045H421.914V147.057H412.243V166.398H402.572V176.069H392.902V185.739H383.231V205.081H392.902V195.41H402.572V176.069H412.243V166.398H421.914V156.727H431.584V147.057H441.255V137.386H450.926V127.715H470.267V118.045H499.279V127.715H518.62V176.069H508.95V185.739H479.938V176.069H470.267V156.727H479.938V147.057H450.926V156.727H441.255V166.398H431.584V176.069H421.914V185.739H412.243V195.41H402.572V214.751H392.902V224.422H383.231V243.763H373.56V272.775H363.89V292.117H354.219V321.129H344.548V340.47H334.878ZM682.984 292.117V301.787H673.313V311.458H663.643V321.129H653.972V330.799H644.301V340.47H634.631V350.141H557.265V340.47H537.924V330.799H528.253V311.458H518.583V282.446H508.912V263.105H518.583V214.751H528.253V195.41H537.924V176.069H547.595V166.398H557.265V156.727H566.936V147.057H576.607V137.386H595.948V127.715H615.289V118.045H673.313V127.715H692.655V137.386H702.325V147.057H711.996V176.069H702.325V185.739H692.655V195.41H682.984V205.081H673.313V214.751H653.972V224.422H615.289V234.093H547.595V243.763H557.265V272.775H566.936V301.787H576.607V311.458H586.277V321.129H644.301V311.458H663.643V301.787H673.313V292.117H682.984ZM566.936 224.422H576.607V214.751H624.96V205.081H644.301V195.41H653.972V185.739H663.643V176.069H673.313V147.057H663.643V137.386H615.289V147.057H605.619V156.727H595.948V166.398H586.277V185.739H576.607V205.081H566.936V224.422ZM798.994 340.47V350.141H740.97V340.47H731.3V330.799H721.629V321.129H711.958V243.763H721.629V224.422H731.3V205.081H740.97V185.739H750.641V176.069H760.312V166.398H769.982V156.727H779.653V147.057H789.324V137.386H808.665V127.715H837.677V118.045H886.03V127.715H915.042V137.386H924.713V127.715H953.725V147.057H944.054V166.398H934.383V195.41H924.713V214.751H915.042V243.763H905.372V263.105H895.701V292.117H886.03V321.129H915.042V311.458H924.713V301.787H934.383V292.117H944.054V301.787H934.383V321.129H924.713V330.799H905.372V340.47H895.701V350.141H847.348V340.47H837.677V321.129H847.348V301.787H857.018V292.117H847.348V301.787H837.677V311.458H828.006V321.129H818.336V330.799H808.665V340.47H798.994ZM769.982 321.129H808.665V311.458H818.336V301.787H828.006V292.117H837.677V282.446H847.348V272.775H857.018V253.434H866.689V234.093H876.36V205.081H886.03V185.739H895.701V147.057H886.03V137.386H837.677V147.057H818.336V156.727H808.665V166.398H798.994V176.069H789.324V195.41H779.653V205.081H769.982V234.093H760.312V311.458H769.982V321.129ZM866.689 272.775H857.018V282.446H866.689V272.775ZM1089.13 147.057V156.727H1079.46V176.069H1069.79V205.081H1060.12V224.422H1050.45V253.434H1040.78V282.446H1031.11V311.458H1040.78V321.129H1060.12V311.458H1079.46V301.787H1089.13V311.458H1079.46V321.129H1069.79V330.799H1060.12V340.47H1050.45V350.141H992.426V340.47H982.756V292.117H992.426V263.105H1002.1V243.763H1011.77V214.751H1021.44V195.41H1031.11V166.398H1040.78V137.386H1011.77V127.715H1031.11V118.045H1050.45V108.374H1060.12V98.7033H1069.79V89.0327H1079.46V79.362H1098.8V69.6913H1108.47V60.0207H1118.15V79.362H1108.47V98.7033H1098.8V118.045H1156.83V137.386H1069.79V147.057H1089.13ZM1234.12 69.6913V50.35H1243.79V31.0087H1253.46V21.338H1301.81V31.0087H1292.14V50.35H1282.47V69.6913H1234.12ZM1195.43 340.47V350.141H1147.08V340.47H1137.41V301.787H1147.08V282.446H1156.75V253.434H1166.42V234.093H1176.09V205.081H1185.76V185.739H1195.43V147.057H1185.76V137.386H1176.09V127.715H1224.45V118.045H1253.46V147.057H1243.79V166.398H1234.12V185.739H1224.45V214.751H1214.78V243.763H1205.11V263.105H1195.43V292.117H1185.76V321.129H1214.78V330.799H1205.11V340.47H1195.43ZM1224.45 321.129H1214.78V311.458H1224.45V301.787H1234.12V292.117H1243.79V301.787H1234.12V311.458H1224.45V321.129ZM1466.57 156.727H1447.23V127.715H1456.9V118.045H1485.91V127.715H1495.58V185.739H1485.91V205.081H1476.24V224.422H1466.57V243.763H1456.9V253.434H1447.23V263.105H1437.56V272.775H1427.89V282.446H1418.22V292.117H1408.55V301.787H1398.88V311.458H1389.21V321.129H1379.54V330.799H1360.19V340.47H1350.52V350.141H1331.18V359.811H1311.84V340.47H1321.51V166.398H1311.84V147.057H1302.17V137.386H1292.5V127.715H1321.51V118.045H1350.52V127.715H1360.19V311.458H1350.52V321.129H1360.19V311.458H1369.87V301.787H1389.21V292.117H1398.88V282.446H1408.55V272.775H1418.22V263.105H1427.89V243.763H1437.56V234.093H1447.23V214.751H1456.9V195.41H1466.57V156.727ZM1679.33 292.117V301.787H1669.66V311.458H1659.99V321.129H1650.31V330.799H1640.64V340.47H1630.97V350.141H1553.61V340.47H1534.27V330.799H1524.6V311.458H1514.93V282.446H1505.25V263.105H1514.93V214.751H1524.6V195.41H1534.27V176.069H1543.94V166.398H1553.61V156.727H1563.28V147.057H1572.95V137.386H1592.29V127.715H1611.63V118.045H1669.66V127.715H1689V137.386H1698.67V147.057H1708.34V176.069H1698.67V185.739H1689V195.41H1679.33V205.081H1669.66V214.751H1650.31V224.422H1611.63V234.093H1543.94V243.763H1553.61V272.775H1563.28V301.787H1572.95V311.458H1582.62V321.129H1640.64V311.458H1659.99V301.787H1669.66V292.117H1679.33ZM1563.28 224.422H1572.95V214.751H1621.3V205.081H1640.64V195.41H1650.31V185.739H1659.99V176.069H1669.66V147.057H1659.99V137.386H1611.63V147.057H1601.96V156.727H1592.29V166.398H1582.62V185.739H1572.95V205.081H1563.28V224.422ZM2017.88 340.47V350.141H1930.84V340.47H1911.5V330.799H1901.83V321.129H1892.16V311.458H1882.49V301.787H1872.82V292.117H1863.15V272.775H1853.47V156.727H1863.15V137.386H1872.82V118.045H1882.49V98.7033H1892.16V89.0327H1901.83V69.6913H1911.5V60.0207H1921.17V50.35H1940.51V40.6793H1950.18V31.0087H1969.52V21.338H1988.86V11.6673H2095.24V21.338H2114.58V31.0087H2133.92V40.6793H2143.59V50.35H2153.27V79.362H2162.94V50.35H2153.27V40.6793H2162.94V31.0087H2191.95V50.35H2182.28V79.362H2172.61V108.374H2162.94V127.715H2153.27V137.386H2143.59V108.374H2133.92V69.6913H2124.25V60.0207H2114.58V50.35H2104.91V40.6793H2085.57V31.0087H2027.55V40.6793H1998.53V50.35H1988.86V60.0207H1969.52V69.6913H1959.85V79.362H1950.18V98.7033H1940.51V108.374H1930.84V127.715H1921.17V147.057H1911.5V185.739H1901.83V263.105H1911.5V282.446H1921.17V301.787H1930.84V311.458H1950.18V321.129H1969.52V330.799H2008.21V321.129H2037.22V311.458H2066.23V301.787H2075.9V292.117H2066.23V282.446H2075.9V253.434H2085.57V205.081H2056.56V185.739H2191.95V195.41H2182.28V205.081H2153.27V214.751H2143.59V224.422H2133.92V253.434H2124.25V272.775H2114.58V301.787H2104.91V321.129H2095.24V350.141H2085.57V340.47H2075.9V330.799H2046.89V340.47H2017.88ZM2085.57 282.446H2075.9V292.117H2085.57V282.446ZM2298.23 340.47V350.141H2240.21V340.47H2230.54V330.799H2220.87V321.129H2211.19V243.763H2220.87V224.422H2230.54V205.081H2240.21V185.739H2249.88V176.069H2259.55V166.398H2269.22V156.727H2278.89V147.057H2288.56V137.386H2307.9V127.715H2336.91V118.045H2385.27V127.715H2414.28V137.386H2423.95V127.715H2452.96V147.057H2443.29V166.398H2433.62V195.41H2423.95V214.751H2414.28V243.763H2404.61V263.105H2394.94V292.117H2385.27V321.129H2414.28V311.458H2423.95V301.787H2433.62V292.117H2443.29V301.787H2433.62V321.129H2423.95V330.799H2404.61V340.47H2394.94V350.141H2346.58V340.47H2336.91V321.129H2346.58V301.787H2356.25V292.117H2346.58V301.787H2336.91V311.458H2327.24V321.129H2317.57V330.799H2307.9V340.47H2298.23ZM2269.22 321.129H2307.9V311.458H2317.57V301.787H2327.24V292.117H2336.91V282.446H2346.58V272.775H2356.25V253.434H2365.93V234.093H2375.6V205.081H2385.27V185.739H2394.94V147.057H2385.27V137.386H2336.91V147.057H2317.57V156.727H2307.9V166.398H2298.23V176.069H2288.56V195.41H2278.89V205.081H2269.22V234.093H2259.55V311.458H2269.22V321.129ZM2365.93 272.775H2356.25V282.446H2365.93V272.775ZM2636.72 1.99668V21.338H2627.05V40.6793H2617.38V69.6913H2607.71V89.0327H2598.04V118.045H2588.37V137.386H2578.7V166.398H2569.03V185.739H2559.36V214.751H2549.69V234.093H2540.02V263.105H2530.35V292.117H2520.67V321.129H2549.69V330.799H2540.02V340.47H2530.35V350.141H2481.99V340.47H2472.32V301.787H2481.99V282.446H2491.66V253.434H2501.33V234.093H2511V205.081H2520.67V185.739H2530.35V156.727H2540.02V137.386H2549.69V108.374H2559.36V89.0327H2569.03V60.0207H2578.7V31.0087H2559.36V11.6673H2617.38V1.99668H2636.72ZM2559.36 321.129H2549.69V311.458H2559.36V301.787H2569.03V292.117H2578.7V301.787H2569.03V311.458H2559.36V321.129ZM2772.24 1.99668V21.338H2762.57V40.6793H2752.9V69.6913H2743.23V89.0327H2733.56V118.045H2723.89V137.386H2714.22V166.398H2704.55V185.739H2694.88V214.751H2685.21V234.093H2675.54V263.105H2665.87V292.117H2656.2V321.129H2685.21V330.799H2675.54V340.47H2665.87V350.141H2617.51V340.47H2607.84V301.787H2617.51V282.446H2627.18V253.434H2636.86V234.093H2646.53V205.081H2656.2V185.739H2665.87V156.727H2675.54V137.386H2685.21V108.374H2694.88V89.0327H2704.55V60.0207H2714.22V31.0087H2694.88V11.6673H2752.9V1.99668H2772.24ZM2694.88 321.129H2685.21V311.458H2694.88V301.787H2704.55V292.117H2714.22V301.787H2704.55V311.458H2694.88V321.129ZM2917.44 292.117V301.787H2907.77V311.458H2898.1V321.129H2888.42V330.799H2878.75V340.47H2869.08V350.141H2791.72V340.47H2772.38V330.799H2762.71V311.458H2753.04V282.446H2743.36V263.105H2753.04V214.751H2762.71V195.41H2772.38V176.069H2782.05V166.398H2791.72V156.727H2801.39V147.057H2811.06V137.386H2830.4V127.715H2849.74V118.045H2907.77V127.715H2927.11V137.386H2936.78V147.057H2946.45V176.069H2936.78V185.739H2927.11V195.41H2917.44V205.081H2907.77V214.751H2888.42V224.422H2849.74V234.093H2782.05V243.763H2791.72V272.775H2801.39V301.787H2811.06V311.458H2820.73V321.129H2878.75V311.458H2898.1V301.787H2907.77V292.117H2917.44ZM2801.39 224.422H2811.06V214.751H2859.41V205.081H2878.75V195.41H2888.42V185.739H2898.1V176.069H2907.77V147.057H2898.1V137.386H2849.74V147.057H2840.07V156.727H2830.4V166.398H2820.73V185.739H2811.06V205.081H2801.39V224.422ZM2975.42 340.47V350.141H2936.74V330.799H2946.41V311.458H2956.08V282.446H2965.75V263.105H2975.42V234.093H2985.09V205.081H2994.76V185.739H3004.43V147.057H2994.76V137.386H2985.09V127.715H3033.45V118.045H3062.46V147.057H3052.79V166.398H3043.12V176.069H3033.45V185.739H3023.78V205.081H3033.45V195.41H3043.12V176.069H3052.79V166.398H3062.46V156.727H3072.13V147.057H3081.8V137.386H3091.47V127.715H3110.81V118.045H3139.82V127.715H3159.17V176.069H3149.49V185.739H3120.48V176.069H3110.81V156.727H3120.48V147.057H3091.47V156.727H3081.8V166.398H3072.13V176.069H3062.46V185.739H3052.79V195.41H3043.12V214.751H3033.45V224.422H3023.78V243.763H3014.11V272.775H3004.43V292.117H2994.76V321.129H2985.09V340.47H2975.42ZM3159.13 446.847V456.518H3091.43V446.847H3081.76V417.835H3091.43V408.165H3101.1V398.494H3110.77V408.165H3130.12V437.177H3120.44V446.847H3130.12V437.177H3159.13V427.506H3178.47V417.835H3188.14V408.165H3197.81V398.494H3207.48V388.823H3217.15V379.153H3226.82V311.458H3217.15V224.422H3207.48V166.398H3197.81V147.057H3188.14V127.715H3217.15V118.045H3236.49V127.715H3246.16V176.069H3255.83V243.763H3265.5V330.799H3255.83V340.47H3265.5V330.799H3275.18V321.129H3284.85V311.458H3294.52V292.117H3304.19V282.446H3313.86V263.105H3323.53V243.763H3333.2V224.422H3342.87V195.41H3352.54V156.727H3333.2V127.715H3342.87V118.045H3371.88V127.715H3381.55V195.41H3371.88V224.422H3362.21V243.763H3352.54V253.434H3342.87V272.775H3333.2V282.446H3323.53V301.787H3313.86V311.458H3304.19V330.799H3294.52V340.47H3284.85V350.141H3275.18V359.811H3265.5V369.482H3255.83V379.153H3246.16V388.823H3236.49V398.494H3226.82V408.165H3217.15V417.835H3207.48V427.506H3197.81V437.177H3178.47V446.847H3159.13Z" fill="white"/>
</g>
<defs>
<filter id="filter0_d_4868_257" x="0" y="0" width="3387.55" height="466.516" filterUnits="userSpaceOnUse" color-interpolation-filters="sRGB">
<feFlood flood-opacity="0" result="BackgroundImageFix"/>
<feColorMatrix in="SourceAlpha" type="matrix" values="0 0 0 0 0 0 0 0 0 0 0 0 0 0 0 0 0 0 127 0" result="hardAlpha"/>
<feOffset dy="4"/>
<feGaussianBlur stdDeviation="3"/>
<feComposite in2="hardAlpha" operator="out"/>
<feColorMatrix type="matrix" values="0 0 0 0 0 0 0 0 0 0 0 0 0 0 0 0 0 0 0.85 0"/>
<feBlend mode="normal" in2="BackgroundImageFix" result="effect1_dropShadow_4868_257"/>
<feBlend mode="normal" in="SourceGraphic" in2="effect1_dropShadow_4868_257" result="shape"/>
</filter>
</defs>
</svg>
