<svg width="3321" height="935" viewBox="0 0 3321 935" fill="none" xmlns="http://www.w3.org/2000/svg">
<path d="M144.509 616.048C146.532 617.06 147.544 619.084 147.544 621.108C147.544 623.132 146.532 625.155 144.509 626.167C140.461 629.203 138.437 633.251 137.425 638.31C136.413 643.37 138.437 648.43 141.473 652.477C144.509 655.513 144.509 660.573 141.473 663.609C136.413 670.692 136.413 679.8 140.461 686.883C142.485 688.907 143.497 692.955 143.497 694.978C141.473 698.014 138.437 702.062 135.401 705.098C133.377 707.122 130.342 708.134 128.318 709.145C125.282 713.193 122.246 718.253 117.186 719.265C114.151 720.277 109.091 716.229 105.043 713.193C100.996 710.157 95.936 710.157 91.8883 712.181C85.8167 716.229 79.7451 720.277 71.6497 714.205C69.6258 712.181 65.5781 714.205 62.5423 714.205C47.3634 714.205 31.1725 714.205 15.9936 714.205C11.9459 714.205 8.91009 714.205 5.87431 712.181C0.814665 708.134 -1.20919 707.122 1.82659 702.062C7.89817 693.967 8.91009 682.835 2.83852 674.74C0.814665 672.716 -0.197266 668.668 0.814665 667.656C5.87431 661.585 2.83852 655.513 3.85045 648.43C3.85045 640.334 3.85045 631.227 5.87431 622.12C7.89817 616.048 6.88623 608.965 4.86238 602.893C2.83852 593.786 2.83852 584.678 5.87431 576.583C7.89817 566.463 7.89817 557.356 5.87431 548.249C3.85045 538.13 3.85045 528.01 5.87431 517.891C7.89817 508.784 7.89817 499.676 5.87431 489.557C3.85045 483.485 6.88623 476.402 0.814665 470.33C-0.197266 470.33 0.814665 466.283 1.82659 465.271C10.934 457.175 7.89817 448.068 3.85045 439.972C0.814665 434.913 0.814665 429.853 2.83852 424.793C5.87431 416.698 4.86238 407.591 1.82659 400.507C-0.197266 397.471 0.814665 393.424 2.83852 391.4C7.89817 384.316 8.91009 375.209 3.85045 368.125C-0.197266 363.066 -0.197266 355.982 3.85045 350.923C8.91009 344.851 8.91009 335.744 3.85045 329.672C0.814665 326.636 -0.197266 322.589 0.814665 318.541C3.85045 311.457 4.86238 305.386 3.85045 298.302C2.83852 290.207 3.85045 283.123 6.88623 276.04C7.89817 271.992 7.89817 266.933 6.88623 262.885C3.85045 251.754 3.85045 239.61 5.87431 228.479C7.89817 220.384 6.88623 211.276 4.86238 202.169C2.83852 194.074 1.82659 183.954 3.85045 175.859C5.87431 168.775 6.88623 160.68 6.88623 153.597C6.88623 151.573 8.91009 149.549 8.91009 147.525C8.91009 146.513 4.86238 145.501 3.85045 144.489C2.83852 137.406 4.86238 129.31 0.814665 122.227C-0.197266 121.215 0.814665 119.191 1.82659 118.179C9.92202 113.119 5.87431 105.024 6.88623 97.9405C6.88623 95.9166 5.87431 93.8927 3.85045 92.8808C0.814665 89.845 -1.20919 83.7735 0.814665 79.7257C4.86238 70.6184 4.86238 61.511 0.814665 52.4037C0.814665 51.3917 0.814665 49.3678 0.814665 48.3559C5.87431 40.2605 5.87431 28.1174 15.9936 22.0458C18.0175 21.0338 20.0413 21.0338 22.0652 21.0338C30.1606 21.0338 37.2441 21.0338 45.3395 21.0338C53.435 21.0338 61.5304 21.0338 69.6258 21.0338C73.6735 20.0219 76.7093 17.9981 80.757 17.9981C83.7928 17.9981 86.8286 19.01 89.8644 21.0338C96.9479 27.1055 102.008 22.0458 108.079 19.01C116.175 12.9385 119.21 12.9385 125.282 19.01C128.318 22.0458 131.353 25.0816 134.389 28.1174C138.437 32.1651 144.509 36.2128 137.425 44.3082C136.413 46.3321 138.437 51.3917 137.425 54.4275C136.413 64.5468 140.461 76.6899 134.389 86.8093C134.389 87.8212 137.425 91.8689 137.425 94.9047C137.425 103 136.413 112.107 135.401 121.215C133.377 130.322 133.377 140.441 136.413 149.549C139.449 158.656 139.449 166.752 136.413 174.847C134.389 181.931 133.377 189.014 135.401 195.086C136.413 202.169 141.473 206.217 132.365 210.265L134.389 212.288C135.401 213.3 137.425 215.324 137.425 216.336C135.401 224.432 139.449 232.527 145.52 237.587C148.556 239.61 146.532 241.634 144.509 243.658C143.497 244.67 142.485 244.67 141.473 245.682C133.377 250.742 132.365 256.813 138.437 262.885C141.473 266.933 148.556 268.956 146.532 275.028C145.52 279.076 141.473 282.112 139.449 285.147C138.437 287.171 137.425 290.207 136.413 291.219C134.389 294.255 134.389 296.279 136.413 298.302C138.437 300.326 139.449 303.362 141.473 305.386C144.509 309.434 144.509 312.469 141.473 316.517C135.401 324.613 136.413 335.744 142.485 343.839C145.52 346.875 144.509 348.899 140.461 348.899C139.449 349.911 138.437 349.911 138.437 350.923C144.509 356.994 130.342 359.018 134.389 365.09C136.413 368.125 135.401 371.161 136.413 374.197C139.449 380.269 143.497 385.328 138.437 392.412C136.413 395.448 137.425 401.519 137.425 405.567C137.425 422.77 138.437 438.96 137.425 456.163C137.425 461.223 135.401 466.283 135.401 471.342C134.389 477.414 134.389 482.473 135.401 487.533C137.425 496.64 138.437 505.748 137.425 513.843C138.437 518.903 138.437 522.951 135.401 526.998C133.377 530.034 134.389 536.106 135.401 540.153C135.401 545.213 144.509 548.249 140.461 554.32C137.425 559.38 138.437 563.428 138.437 568.487C137.425 573.547 139.449 578.607 143.497 581.642C148.556 586.702 148.556 588.726 141.473 591.762C137.425 594.798 134.389 596.821 135.401 601.881C135.401 603.905 136.413 606.941 137.425 607.953C139.449 610.988 142.485 614.024 144.509 616.048ZM8.91009 659.561C8.91009 658.549 9.92202 657.537 9.92202 656.525C9.92202 655.513 9.92202 654.501 8.91009 652.477C7.89817 654.501 6.88623 654.501 6.88623 655.513C7.89817 656.525 7.89817 658.549 8.91009 659.561ZM11.9459 677.776L13.9697 673.728L11.9459 668.668C10.934 669.68 10.934 670.692 9.92202 672.716C10.934 673.728 10.934 675.752 11.9459 677.776ZM20.0413 698.014L23.0771 697.002L21.0532 692.955C21.0532 693.967 20.0413 694.978 20.0413 695.99C19.0294 697.002 20.0413 698.014 20.0413 698.014ZM33.1964 191.038L34.2083 190.026L33.1964 188.002L32.1845 189.014C32.1845 190.026 33.1964 190.026 33.1964 191.038ZM42.3037 601.881C42.3037 600.869 43.3157 600.869 43.3157 600.869C43.3157 599.857 42.3037 598.845 42.3037 598.845C42.3037 598.845 41.2918 598.845 41.2918 599.857C41.2918 599.857 42.3037 600.869 42.3037 601.881ZM42.3037 330.684C42.3037 330.684 43.3157 330.684 43.3157 329.672C43.3157 329.672 42.3037 328.66 42.3037 327.648L41.2918 328.66L42.3037 330.684ZM42.3037 200.145L43.3157 199.133C43.3157 198.121 42.3037 198.121 41.2918 198.121C41.2918 198.121 41.2918 198.121 40.2799 199.133L42.3037 200.145ZM42.3037 166.752L43.3157 164.728C43.3157 164.728 42.3037 164.728 41.2918 163.716C41.2918 163.716 41.2918 164.728 40.2799 164.728L42.3037 166.752ZM63.5542 266.933C62.5423 266.933 62.5423 267.945 62.5423 267.945C62.5423 268.956 63.5542 269.968 63.5542 269.968L64.5662 268.956L63.5542 266.933ZM64.5662 686.883C63.5542 687.895 61.5304 687.895 62.5423 687.895C62.5423 689.919 62.5423 690.931 63.5542 691.943C63.5542 691.943 64.5662 691.943 64.5662 690.931C64.5662 689.919 64.5662 687.895 64.5662 686.883ZM51.4111 364.078L52.423 363.066L51.4111 361.042C51.4111 362.054 50.3992 362.054 50.3992 362.054C50.3992 363.066 51.4111 364.078 51.4111 364.078ZM54.4469 354.97C54.4469 354.97 55.4588 354.97 55.4588 353.958C55.4588 353.958 54.4469 352.947 54.4469 351.935L53.435 352.947L54.4469 354.97ZM54.4469 130.322L55.4588 129.31C55.4588 128.298 54.4469 128.298 54.4469 127.286L53.435 128.298L54.4469 130.322ZM62.5423 698.014C63.5542 698.014 64.5662 698.014 64.5662 697.002L63.5542 695.99L61.5304 697.002C62.5423 698.014 62.5423 698.014 62.5423 698.014ZM66.59 370.149C66.59 370.149 67.602 370.149 67.602 369.137C67.602 369.137 66.59 368.125 66.59 367.114L65.5781 368.125L66.59 370.149ZM74.6855 156.632C75.6974 156.632 76.7093 156.632 77.7213 155.62L75.6974 154.608L74.6855 155.62C74.6855 156.632 74.6855 156.632 74.6855 156.632ZM84.8048 266.933L85.8167 265.921L84.8048 263.897L83.7928 264.909C83.7928 265.921 84.8048 265.921 84.8048 266.933ZM84.8048 27.1055L85.8167 25.0816L84.8048 24.0696C84.8048 24.0696 83.7928 25.0816 83.7928 26.0935C83.7928 26.0935 84.8048 26.0935 84.8048 27.1055ZM90.8763 589.738C90.8763 588.726 91.8883 588.726 91.8883 588.726C91.8883 587.714 90.8763 586.702 90.8763 586.702C90.8763 586.702 89.8644 586.702 89.8644 587.714C89.8644 587.714 90.8763 588.726 90.8763 589.738ZM96.9479 285.147L98.9718 282.112L96.9479 279.076C95.936 280.088 95.936 282.111 95.936 283.123C95.936 284.135 96.9479 284.135 96.9479 285.147ZM122.246 373.185C122.246 372.173 121.234 370.149 121.234 370.149C120.222 371.161 118.198 371.161 117.186 371.161C117.186 372.173 118.198 373.185 118.198 373.185C120.222 373.185 121.234 373.185 122.246 373.185ZM117.186 278.064C117.186 280.088 117.186 281.1 118.198 282.112C119.21 281.1 119.21 281.1 119.21 280.088C119.21 278.064 119.21 277.052 118.198 276.04C118.198 277.052 117.186 278.064 117.186 278.064ZM118.198 36.2128L117.186 38.2366L118.198 39.2486C118.198 38.2366 119.21 37.2247 119.21 37.2247C119.21 36.2128 118.198 36.2128 118.198 36.2128ZM119.21 252.766L117.186 253.778C117.186 253.778 117.186 254.789 118.198 254.789C118.198 253.778 119.21 253.778 120.222 253.778L119.21 252.766ZM106.055 307.41H105.043C105.043 307.41 105.043 307.41 105.043 308.422L106.055 309.434L108.079 308.422C107.067 307.41 106.055 307.41 106.055 307.41ZM106.055 321.577L107.067 320.565L106.055 318.541C106.055 319.553 105.043 319.553 105.043 319.553C105.043 320.565 106.055 321.577 106.055 321.577ZM109.091 640.334H108.079C112.127 638.31 109.091 634.263 111.115 629.203L110.103 620.096C106.055 623.131 108.079 627.179 108.079 630.215C108.079 634.263 108.079 637.299 109.091 640.334ZM120.222 681.823H119.21C119.21 673.728 119.21 666.644 120.222 658.549C119.21 657.537 119.21 657.537 118.198 656.525C118.198 657.537 117.186 657.537 117.186 658.549C117.186 662.597 117.186 665.633 117.186 669.68C117.186 673.728 117.186 676.764 117.186 681.823C117.186 681.823 118.198 682.835 118.198 683.847C119.21 682.835 120.222 681.823 120.222 681.823ZM121.234 471.342H120.222C120.222 472.354 119.21 473.366 120.222 474.378C120.222 475.39 121.234 475.39 122.246 476.402L123.258 472.354L121.234 471.342ZM121.234 586.702L120.222 587.714L121.234 589.738C121.234 588.726 122.246 588.726 122.246 588.726C122.246 587.714 121.234 586.702 121.234 586.702ZM121.234 697.002L125.282 694.978C124.27 693.967 123.258 692.955 122.246 692.955C122.246 692.955 121.234 693.967 120.222 693.967L121.234 697.002ZM127.306 51.3917L126.294 52.4037C126.294 53.4156 127.306 53.4156 128.318 53.4156C128.318 53.4156 128.318 53.4156 129.33 52.4037L127.306 51.3917ZM128.318 435.925C128.318 435.925 127.306 434.913 127.306 433.901L126.294 435.925L127.306 436.937C127.306 436.937 128.318 436.937 128.318 435.925ZM127.306 626.167L129.33 623.132L127.306 620.096C126.294 621.108 126.294 622.12 126.294 624.143C126.294 624.143 127.306 625.155 127.306 626.167Z" fill="black"/>
<path d="M691.33 627.179C698.413 633.251 698.413 633.251 692.341 640.334C689.306 642.358 688.294 646.406 688.294 650.454C687.282 654.501 689.306 657.537 692.341 660.573C693.353 662.597 695.377 665.633 696.389 667.656C696.389 669.68 696.389 671.704 695.377 672.716C693.353 675.752 690.318 678.788 688.294 680.811C686.27 682.835 684.246 685.871 684.246 688.907C685.258 692.955 683.234 698.014 680.198 702.062C676.151 705.098 671.091 707.122 667.043 707.122C656.924 707.122 647.817 708.134 638.709 707.122C635.673 707.122 632.638 706.11 629.602 707.122C619.483 711.169 607.339 711.169 597.22 707.122C591.149 706.11 585.077 706.11 579.005 707.122C576.982 707.122 573.946 707.122 572.934 706.11C570.91 700.038 566.862 694.978 563.827 690.931C557.755 683.847 560.791 678.788 563.827 672.716C568.886 665.633 567.874 655.513 561.803 648.43C559.779 646.406 559.779 642.358 560.791 639.322C564.838 633.251 562.815 628.191 563.827 622.12C563.827 620.096 563.827 619.084 563.827 617.06C559.779 606.941 559.779 605.929 563.827 598.845C567.874 592.774 567.874 584.678 562.815 579.619C559.779 575.571 555.731 570.511 561.803 563.428C563.827 559.38 565.85 554.32 566.862 549.261C566.862 548.249 565.85 546.225 564.839 545.213C559.779 542.177 558.767 535.094 561.803 530.034C563.827 524.974 563.827 519.915 563.827 514.855C562.815 505.748 563.827 496.64 565.85 487.533C566.862 481.461 566.862 474.378 564.839 469.318C562.815 458.187 562.815 448.068 563.827 437.949C566.862 426.817 566.862 415.686 563.827 404.555C563.827 400.507 562.815 396.459 563.827 392.412C562.815 386.34 564.838 380.269 558.767 375.209C556.743 373.185 557.755 367.114 558.767 364.078C559.779 362.054 560.791 360.03 560.791 358.006C559.779 355.982 558.767 353.958 556.743 352.947C555.731 350.923 554.719 348.899 554.719 347.887C547.636 335.744 539.54 324.613 529.421 315.505C528.409 313.481 522.337 314.493 521.326 311.457C517.278 306.398 510.194 313.481 506.147 308.422C503.111 304.374 496.027 304.374 490.968 301.338C484.896 299.314 478.825 299.314 472.753 301.338C466.681 304.374 459.598 304.374 452.514 302.35C448.467 300.326 447.455 302.35 445.431 303.362C442.395 307.41 440.371 312.469 437.335 314.493C432.276 315.505 427.216 316.517 422.157 315.505C417.097 314.493 411.025 316.517 407.99 320.565C399.894 328.66 391.799 336.756 383.703 343.839C380.667 346.875 380.667 351.935 382.691 354.97C385.727 362.054 385.727 364.078 378.644 366.102C369.536 371.161 363.465 380.269 363.465 390.388C361.441 394.436 360.429 397.471 360.429 401.519C360.429 404.555 363.465 407.591 362.453 410.626C362.453 418.722 360.429 425.805 358.405 432.889C358.405 434.913 356.381 435.925 357.393 436.937C360.429 451.104 361.441 466.283 359.417 481.461C360.429 489.557 357.393 497.652 357.393 505.748C357.393 516.879 359.417 526.998 360.429 538.13C366.5 541.165 362.453 546.225 360.429 549.261C356.381 555.332 356.381 563.428 357.393 570.511C357.393 572.535 358.405 573.547 360.429 574.559C361.441 576.583 363.465 576.583 364.477 576.583C367.512 575.571 369.536 576.583 369.536 580.63C369.536 582.654 369.536 584.678 365.488 585.69C363.465 585.69 360.429 589.738 360.429 591.762C360.429 596.821 357.393 602.893 362.453 606.941C364.477 608.965 367.512 610.988 368.524 614.024C369.536 616.048 371.56 620.096 366.5 622.12C363.465 623.131 361.441 625.155 359.417 627.179C357.393 629.203 356.381 631.227 358.405 633.251C359.417 635.275 359.417 637.299 360.429 638.31C363.465 643.37 369.536 647.418 368.524 651.466C368.524 655.513 362.453 659.561 359.417 663.609C356.381 668.668 356.381 673.728 359.417 677.776C368.524 688.907 368.524 688.907 356.381 698.014C352.333 700.038 349.298 704.086 348.286 708.134C345.25 714.205 342.214 714.205 336.143 711.169C329.059 707.122 320.964 703.074 312.868 710.157C306.797 709.145 299.713 712.181 292.63 708.134C289.594 706.11 285.546 706.11 282.51 707.122C275.427 711.169 267.331 711.169 260.248 708.134C251.141 705.098 246.081 697.002 240.009 690.931C238.997 689.919 238.997 688.907 238.997 686.883C238.997 679.8 237.985 672.716 235.962 665.633C234.95 662.597 236.974 658.549 238.997 654.501C243.045 647.418 242.033 637.299 234.95 631.227C231.914 629.203 231.914 627.179 234.95 624.143C240.009 617.06 240.009 605.929 234.95 598.845C231.914 595.809 231.914 590.75 233.938 587.714C235.962 584.678 237.985 581.642 237.985 577.595C238.997 570.511 240.009 563.428 231.914 559.38C227.866 556.344 228.878 553.308 231.914 550.273C233.938 549.261 235.962 547.237 237.985 545.213C242.033 539.141 242.033 535.094 236.974 528.01C235.962 525.986 234.95 523.963 233.938 521.939C232.926 519.915 232.926 516.879 232.926 516.879C240.009 510.807 242.033 501.7 237.985 494.617C234.95 485.509 235.962 475.39 240.009 467.294C241.021 465.271 241.021 462.235 240.009 461.223C235.962 452.116 234.95 440.984 237.985 431.877C240.009 421.758 240.009 411.638 236.974 402.531C235.962 392.412 234.95 381.281 235.962 371.161C241.021 367.114 238.997 362.054 238.997 356.994C238.997 349.911 238.997 341.815 238.997 334.732C238.997 331.696 240.009 328.66 238.997 326.636C231.914 319.553 238.997 312.469 238.997 305.386C246.081 298.302 240.009 292.231 235.962 287.171C231.914 280.088 231.914 280.088 235.962 274.016C240.009 265.921 240.009 257.825 235.962 250.742C231.914 246.694 232.926 244.67 234.95 240.622C237.985 236.575 238.997 231.515 238.997 226.455C237.985 221.396 240.009 217.348 242.033 213.3C244.057 211.276 246.081 209.253 248.105 209.253C254.176 208.241 259.236 207.229 265.308 205.205C272.391 201.157 281.498 202.169 287.57 207.229C289.594 208.241 291.618 208.241 292.63 207.229C300.725 206.217 308.82 201.157 316.916 203.181C326.023 205.205 337.155 206.217 347.274 206.217C349.298 205.205 350.31 206.217 352.333 207.229C353.345 208.241 354.357 210.265 354.357 212.288C353.345 217.348 352.333 222.408 352.333 226.455C353.345 231.515 358.405 236.575 356.381 241.634C355.369 246.694 359.417 249.73 363.465 252.766C364.477 253.778 365.488 254.789 367.512 254.789C369.536 254.789 371.56 253.778 372.572 252.766C378.644 243.658 390.787 241.634 394.834 230.503C395.846 227.467 399.894 225.443 402.93 225.443C407.99 223.42 412.037 220.384 414.061 216.336C416.085 211.276 420.133 209.253 425.192 209.253C433.288 208.241 441.383 206.217 448.467 204.193C458.586 202.169 467.693 199.133 476.801 194.074C483.884 192.05 491.98 192.05 499.063 194.074C509.182 196.098 520.314 197.109 531.445 196.098C533.469 196.098 535.493 193.062 539.54 193.062C540.552 193.062 541.564 193.062 542.576 193.062C547.636 195.086 552.695 197.109 557.755 198.121C566.862 200.145 573.946 207.229 583.053 200.145C584.065 199.133 587.101 200.145 588.113 201.157C598.232 211.276 609.363 220.384 621.506 227.467C629.602 233.539 637.697 239.61 644.781 246.694C653.888 256.813 661.984 269.968 667.043 283.123C667.043 284.135 668.055 286.159 669.067 288.183C670.079 294.255 676.151 296.279 678.174 301.338C680.198 305.386 677.163 312.469 680.198 316.517C682.222 322.589 682.222 328.66 681.21 333.72C681.21 339.791 683.234 345.863 688.294 349.911C695.377 356.994 696.389 358.006 690.318 367.114C687.282 373.185 686.27 380.269 689.306 386.34C690.318 389.376 691.33 393.424 690.318 396.459C686.27 406.579 686.27 418.722 690.318 428.841C691.33 430.865 689.306 434.913 688.294 436.937C685.258 444.02 681.21 451.104 687.282 459.199C688.294 472.354 688.294 486.521 686.27 500.688C684.246 507.772 684.246 515.867 686.27 523.963C688.294 535.094 688.294 546.225 686.27 557.356C683.234 566.464 684.246 575.571 688.294 583.666C689.306 586.702 690.318 588.726 691.33 589.738C698.413 596.821 698.413 595.809 693.353 602.893C690.318 604.917 689.306 606.941 688.294 609.976C684.246 619.084 684.246 619.084 691.33 627.179ZM246.081 484.497L247.093 483.485C247.093 483.485 246.081 482.473 246.081 481.461L245.069 482.473L246.081 484.497ZM258.224 454.139L259.236 452.116L258.224 451.104C258.224 452.116 257.212 453.127 257.212 453.127L258.224 454.139ZM309.832 281.1L310.844 280.088L309.832 278.064L308.82 279.076C308.82 280.088 309.832 280.088 309.832 281.1ZM318.94 271.992L319.952 269.968L318.94 268.956C318.94 269.968 317.928 269.968 317.928 270.98L318.94 271.992ZM321.976 445.032L322.987 444.02C322.987 443.008 321.976 443.008 320.964 443.008C320.964 443.008 320.964 443.008 319.952 444.02L321.976 445.032ZM328.047 615.036C328.047 615.036 329.059 614.024 329.059 613.012L328.047 612L327.035 614.024L328.047 615.036ZM331.083 441.996L332.095 439.972L331.083 438.96C331.083 439.972 330.071 439.972 330.071 440.984L331.083 441.996ZM382.691 259.849L383.703 257.825L382.691 256.813C382.691 256.813 381.679 257.825 381.679 258.837L382.691 259.849ZM419.121 226.455L420.133 224.432L419.121 223.42C419.121 224.432 418.109 224.432 418.109 225.443L419.121 226.455ZM506.147 267.945L507.159 268.956C508.17 268.956 509.182 268.956 511.206 268.956V265.921C509.182 265.921 508.17 265.921 506.147 265.921V267.945ZM517.278 245.682V244.67C517.278 244.67 516.266 244.67 515.254 245.682C515.254 245.682 516.266 246.694 516.266 247.706L517.278 245.682ZM519.302 244.67C519.302 244.67 520.314 243.658 520.314 242.646L519.302 241.634L517.278 243.658L519.302 244.67ZM528.409 302.35C528.409 301.338 529.421 301.338 529.421 300.326L528.409 299.314L527.397 301.338L528.409 302.35ZM532.457 281.1C531.445 283.123 530.433 284.135 530.433 285.147L532.457 286.159L536.504 282.112C534.481 282.112 532.457 281.1 532.457 281.1ZM534.481 314.493C538.528 312.469 540.552 308.422 538.528 304.374C538.528 303.362 537.516 303.362 537.516 302.35C534.481 304.374 532.457 307.41 530.433 309.434C529.421 310.446 530.433 312.469 530.433 314.493C531.445 314.493 533.469 314.493 534.481 314.493ZM546.624 259.849C547.636 258.837 547.636 257.825 548.648 255.801C548.648 254.789 547.636 254.789 546.624 253.778L545.612 256.813L546.624 259.849ZM576.982 314.493L577.994 313.481L576.982 311.457L575.97 312.469C576.982 313.481 576.982 313.481 576.982 314.493ZM592.161 593.786L593.172 592.774C593.172 591.762 593.172 590.75 592.161 590.75L591.149 591.762C592.161 591.762 592.161 592.774 592.161 593.786ZM592.161 553.308V554.32C592.161 553.308 593.173 553.308 594.184 552.297L593.172 551.285L591.149 552.297C591.149 553.308 591.149 553.308 592.161 553.308ZM593.172 380.269L594.184 379.257C593.173 379.257 592.161 379.257 592.161 378.245C591.149 378.245 591.149 379.257 591.149 379.257L593.172 380.269ZM613.411 530.034C613.411 529.022 614.423 529.022 614.423 528.01L613.411 526.998L612.399 529.022L613.411 530.034ZM614.423 378.245C614.423 377.233 614.423 375.209 614.423 373.185C614.423 373.185 613.411 373.185 613.411 372.173C612.399 373.185 612.399 375.209 612.399 376.221C612.399 377.233 613.411 377.233 614.423 378.245ZM625.554 539.141L626.566 538.13L625.554 536.106L624.542 537.118C624.542 537.118 625.554 538.129 625.554 539.141ZM655.912 375.209C655.912 376.221 654.9 376.221 654.9 376.221C654.9 376.221 655.912 377.233 655.912 378.245L656.924 377.233L655.912 375.209ZM646.805 584.678L647.817 583.666L646.805 581.642L645.793 582.654C645.793 582.654 646.805 583.666 646.805 584.678ZM655.912 581.642L656.924 579.619L655.912 578.607C655.912 578.607 654.9 579.619 654.9 580.63C654.9 580.63 655.912 580.631 655.912 581.642ZM655.912 563.428L656.924 561.404L655.912 560.392C655.912 560.392 654.9 561.404 654.9 562.416C654.9 562.416 655.912 562.416 655.912 563.428ZM655.912 462.235V463.247C655.912 462.235 656.924 462.235 657.936 461.223L655.912 460.211L654.9 461.223C654.9 462.235 654.9 462.235 655.912 462.235ZM658.948 399.495L659.96 398.483C659.96 397.471 658.948 396.459 658.948 396.459L657.936 397.471C657.936 397.471 658.948 398.483 658.948 399.495ZM677.163 378.245L678.174 377.233L677.163 375.209L676.151 376.221C676.151 376.221 677.163 377.233 677.163 378.245Z" fill="black"/>
<path d="M1248.33 691.943C1256.43 705.098 1252.38 717.241 1236.19 719.265C1228.09 720.277 1222.02 722.301 1214.94 726.348C1207.86 729.384 1207.86 730.396 1203.81 723.312C1202.8 720.277 1200.77 717.241 1196.72 717.241C1191.67 717.241 1186.61 715.217 1182.56 720.277C1181.55 722.301 1180.53 723.312 1179.52 724.324C1173.45 730.396 1173.45 730.396 1166.37 724.324C1160.3 719.265 1150.18 718.253 1143.09 723.312C1135 728.372 1130.95 727.36 1125.89 720.277C1124.88 718.253 1122.85 714.205 1120.83 713.193C1107.68 705.098 1097.56 692.955 1091.48 678.788C1089.46 674.74 1086.42 670.692 1082.38 668.668C1078.33 667.656 1075.29 663.609 1076.31 658.549C1076.31 652.477 1078.33 646.406 1069.22 645.394C1068.21 645.394 1067.2 643.37 1067.2 642.358C1071.25 633.251 1060.11 629.203 1058.09 623.132C1055.05 617.06 1050 612 1047.97 605.929C1044.94 598.845 1038.86 595.809 1038.86 587.714C1038.86 583.666 1033.8 578.607 1029.76 575.571C1025.71 571.523 1022.67 566.463 1020.65 560.392C1019.64 558.368 1017.61 555.332 1015.59 555.332C1008.51 553.308 1003.45 547.237 1004.46 539.141C1005.47 535.094 1001.42 534.082 996.363 533.07C990.291 531.046 990.291 530.034 992.315 522.951C993.327 520.927 993.327 517.891 992.315 515.867C991.303 513.843 989.279 511.819 987.255 511.819C982.196 508.784 977.136 505.748 977.136 499.676C977.136 493.605 976.124 492.593 970.053 492.593C962.969 491.581 955.886 494.617 952.85 499.676C950.826 503.724 947.79 506.76 945.766 509.795C943.743 511.819 939.695 512.831 937.671 514.855C932.611 518.903 929.576 524.974 924.516 528.01C915.409 536.106 907.313 544.201 900.23 552.297C894.158 557.356 892.134 566.463 894.158 573.547C895.17 580.63 894.158 587.714 892.134 594.797C890.11 606.941 890.11 619.084 892.134 630.215C892.134 637.299 896.182 644.382 901.242 648.43C904.277 651.466 903.265 654.501 899.218 657.537C897.194 659.561 895.17 660.573 893.146 662.597C891.122 664.621 889.098 667.656 890.11 671.704C890.11 674.74 892.134 677.776 895.17 679.799C904.277 686.883 904.277 686.883 897.194 695.99C895.17 697.002 894.158 699.026 893.146 702.062C890.11 712.181 881.003 719.265 869.872 719.265C866.836 720.277 863.8 722.301 861.776 725.336C857.729 730.396 855.705 730.396 851.657 727.36C850.645 726.348 850.645 724.324 849.633 723.312C847.609 721.289 845.585 717.241 842.55 717.241C837.49 716.229 832.43 715.217 828.383 720.277C827.371 722.301 825.347 724.324 823.323 726.348C818.263 730.396 815.228 731.408 810.168 725.336C805.108 719.265 794.989 717.241 787.906 723.312C777.786 727.36 777.786 726.348 774.75 716.229C772.727 708.134 771.715 700.038 771.715 691.943C770.703 687.895 769.691 684.859 768.679 680.811C767.667 676.764 768.679 673.728 766.655 669.68C763.619 665.633 764.631 660.573 767.667 656.525C768.679 655.513 769.691 653.489 769.691 651.466C771.715 647.418 771.715 642.358 770.703 638.31C769.691 634.263 763.619 631.227 762.607 626.167C761.595 623.132 766.655 619.084 768.679 615.036C769.691 610.988 769.691 607.953 768.679 603.905C766.655 598.845 762.607 592.774 762.607 587.714C763.619 583.666 768.679 579.619 771.715 574.559C772.727 572.535 771.715 570.511 770.703 568.487C759.572 557.356 767.667 545.213 770.703 533.07C771.715 530.034 771.715 525.986 769.691 522.951C766.655 517.891 761.595 512.831 768.679 505.748C769.691 503.724 768.679 499.676 768.679 496.64C767.667 485.509 768.679 474.378 771.715 463.247C772.727 459.199 772.727 455.151 771.715 451.104C767.667 438.96 767.667 425.805 770.703 413.662C772.727 403.543 771.715 392.412 769.691 383.304C767.667 374.197 767.667 365.09 769.691 355.982C774.75 340.803 771.715 324.613 763.619 311.457C761.595 309.434 763.619 307.41 763.619 305.386C765.643 299.314 771.715 295.267 771.715 288.183C771.715 281.1 765.643 278.064 763.619 271.992C762.607 268.956 763.619 268.956 765.643 266.933C768.679 259.849 769.691 251.754 768.679 244.67C767.667 242.646 766.655 239.61 764.631 238.599C761.595 235.563 761.595 232.527 764.631 229.491C766.655 228.479 767.667 227.467 767.667 226.455C769.691 223.42 770.703 220.384 771.715 217.348C771.715 214.312 772.727 212.288 773.739 209.253C767.667 210.265 769.691 205.205 766.655 203.181C761.595 199.133 760.583 195.086 765.643 191.038C770.703 185.978 765.643 177.883 770.703 172.823C771.715 171.811 769.691 165.74 767.667 163.716C764.631 159.668 765.643 156.632 766.655 152.585C768.679 143.477 768.679 134.37 766.655 125.263C765.643 123.239 766.655 119.191 767.667 117.167C771.715 109.072 771.715 100.976 769.691 92.8808C766.655 80.7377 766.655 68.5945 769.691 57.4633C771.715 48.3559 771.715 39.2486 771.715 30.1412C770.703 23.0577 772.727 15.9742 775.762 9.90265C777.786 7.87882 779.81 6.86684 781.834 6.86684C786.894 5.85492 791.953 5.85492 797.013 6.86684C803.084 6.86684 809.156 5.85492 815.228 3.83109C820.287 1.8072 827.371 5.85492 832.43 6.86684C834.454 6.86684 835.466 7.87882 837.49 7.87882C850.645 4.84301 863.8 5.85492 876.955 9.90265C882.015 11.9265 887.075 14.9623 892.134 19.01V21.0338C891.122 30.1412 893.146 38.2367 897.194 45.3202C899.218 47.344 899.218 49.3678 899.218 52.4037C899.218 55.4395 898.206 57.4633 895.17 58.4752C892.134 61.511 890.11 64.5468 890.11 68.5945C889.098 72.6422 890.11 76.6899 893.146 79.7257C895.17 84.7854 900.23 90.8569 893.146 95.9166C893.146 105.024 893.146 115.143 893.146 124.251C893.146 129.31 895.17 133.358 891.122 138.418C889.098 142.465 889.098 146.513 890.11 150.561C893.146 161.692 893.146 171.811 891.122 182.942C888.086 194.074 889.098 206.217 893.146 217.348V237.587C889.098 245.682 888.086 254.789 891.122 262.885C892.134 271.992 893.146 280.088 893.146 289.195C893.146 295.267 896.182 292.231 897.194 290.207C899.218 292.231 901.242 294.255 902.253 296.279C903.265 298.302 904.277 301.338 900.23 302.35C897.194 303.362 894.158 305.386 893.146 307.41C891.122 310.446 890.11 313.481 890.11 316.517C890.11 319.553 892.134 321.577 894.158 323.601C905.289 331.696 905.289 331.696 897.194 340.803C893.146 345.863 891.122 356.994 896.182 362.054C904.277 369.137 897.194 374.197 895.17 380.269C894.158 383.304 888.086 384.316 891.122 388.364C894.158 393.424 896.182 399.495 902.253 401.519C905.289 401.519 907.313 401.519 909.337 399.495C920.468 388.364 932.611 377.233 943.743 365.09C944.754 363.066 945.766 361.042 946.778 359.018C946.778 358.006 946.778 355.982 947.79 354.97C959.933 349.911 963.981 336.756 975.112 330.684C978.148 328.66 980.172 325.624 981.184 322.589C984.22 317.529 985.232 309.434 994.339 311.457C997.375 308.422 1000.41 304.374 1002.43 300.326C1003.45 295.267 1005.47 293.243 1011.54 292.231C1014.58 292.231 1016.6 290.207 1017.61 287.171C1020.65 281.1 1025.71 277.052 1031.78 274.016C1033.8 271.992 1035.83 269.968 1037.85 267.945C1041.9 262.885 1046.96 258.837 1051.01 254.789C1056.07 250.742 1060.11 246.694 1064.16 241.634L1078.33 227.467C1083.39 223.42 1087.44 218.36 1091.48 214.312C1097.56 208.241 1105.65 204.193 1113.75 205.205C1122.85 205.205 1132.97 204.193 1143.09 202.169C1154.22 203.181 1165.35 204.193 1176.49 205.205C1182.56 206.217 1189.64 205.205 1194.7 201.157C1198.75 198.121 1204.82 198.121 1208.87 201.157C1212.92 203.181 1217.98 204.193 1222.02 205.205C1227.08 206.217 1231.13 209.253 1233.15 214.312C1235.18 220.384 1232.14 226.455 1226.07 228.479C1216.96 234.551 1208.87 242.646 1201.78 250.742C1193.69 258.837 1185.59 266.933 1178.51 276.04C1169.4 287.171 1159.28 297.29 1148.15 306.398C1147.14 308.422 1143.09 313.481 1139.04 309.434C1137.02 309.434 1136.01 310.446 1135 311.457C1132.97 315.505 1137.02 313.481 1138.03 314.493C1138.03 315.505 1138.03 316.517 1138.03 317.529C1135 321.577 1130.95 324.613 1126.9 328.66C1125.89 330.684 1124.88 332.708 1123.87 334.732C1123.87 338.78 1124.88 344.851 1123.87 346.875C1121.84 348.899 1115.77 347.887 1111.72 348.899C1108.69 348.899 1105.65 351.935 1105.65 355.982C1102.62 367.114 1102.62 367.114 1092.5 367.114C1087.44 367.114 1086.42 369.137 1086.42 373.185C1086.42 384.316 1085.41 385.328 1075.29 386.34C1074.28 386.34 1074.28 386.34 1073.27 386.34C1069.22 385.328 1068.21 386.34 1068.21 391.4C1067.2 395.448 1070.23 401.519 1066.19 405.567C1065.17 406.579 1065.17 409.615 1066.19 410.626C1072.26 418.722 1077.32 426.817 1080.35 435.925C1084.4 445.032 1090.47 453.127 1097.56 460.211C1103.63 465.271 1101.6 473.366 1107.68 478.426C1112.73 481.461 1114.76 488.545 1117.79 493.605C1120.83 497.652 1122.85 502.712 1127.91 503.724C1130.95 503.724 1133.99 505.748 1135 507.772C1137.02 510.807 1138.03 513.843 1137.02 516.879C1136.01 520.927 1137.02 523.963 1142.08 523.963C1146.13 523.963 1149.16 525.986 1152.2 528.01C1154.22 529.022 1155.24 532.058 1155.24 533.07C1147.14 546.225 1157.26 554.32 1163.33 563.428C1171.43 576.583 1181.55 588.726 1188.63 602.893C1196.72 612 1202.8 622.12 1208.87 633.251C1208.87 635.275 1210.89 637.299 1212.92 637.299C1221.01 639.322 1226.07 648.43 1224.05 656.525C1224.05 660.573 1226.07 663.609 1232.14 663.609C1237.2 663.609 1240.24 667.656 1239.23 672.716C1239.23 678.788 1241.25 685.871 1246.31 689.919C1247.32 690.931 1247.32 691.943 1248.33 691.943ZM1172.44 221.396C1172.44 221.396 1171.43 222.408 1171.43 223.42C1171.43 223.42 1172.44 223.42 1172.44 224.432L1173.45 222.408L1172.44 221.396ZM1139.04 293.243C1138.03 294.255 1137.02 295.267 1137.02 296.279C1137.02 296.279 1137.02 297.29 1138.03 298.302L1140.06 297.29L1139.04 293.243ZM1125.89 211.276C1125.89 212.288 1124.88 212.288 1124.88 212.288C1124.88 213.3 1125.89 214.312 1125.89 214.312C1125.89 214.312 1126.9 214.312 1126.9 213.3C1126.9 213.3 1125.89 212.288 1125.89 211.276ZM1106.66 224.432L1105.65 225.443L1107.68 226.455L1108.69 225.443C1107.68 225.443 1107.68 224.432 1106.66 224.432ZM1097.56 326.636C1097.56 327.648 1096.54 327.648 1096.54 328.66C1095.53 332.708 1097.56 337.768 1101.6 338.78C1102.62 339.791 1104.64 338.78 1107.68 337.768L1097.56 326.636ZM1094.52 292.231C1094.52 293.243 1093.51 293.243 1093.51 293.243C1093.51 294.255 1094.52 295.267 1094.52 295.267C1094.52 295.267 1095.53 295.267 1095.53 294.255C1095.53 294.255 1095.53 293.243 1094.52 292.231ZM1095.53 324.613C1095.53 324.613 1094.52 324.613 1093.51 324.613L1094.52 326.636H1096.54C1095.53 325.624 1095.53 325.624 1095.53 324.613ZM1066.19 345.863L1065.17 346.875C1066.19 346.875 1066.19 347.887 1066.19 348.899L1067.2 347.887L1066.19 345.863ZM774.75 378.245C775.762 377.233 774.75 376.221 774.75 375.209C774.75 373.185 774.75 371.161 774.75 369.137C774.75 368.125 773.739 368.125 772.727 368.125V379.257C773.739 379.257 774.75 378.245 774.75 378.245ZM776.774 358.006L778.798 353.958L776.774 348.899C775.762 349.911 775.762 350.923 774.75 352.947C775.762 354.97 775.762 355.982 776.774 358.006ZM785.882 704.086L786.894 702.062L785.882 701.05C785.882 701.05 784.87 702.062 784.87 703.074L785.882 704.086ZM784.87 670.692C784.87 671.704 785.882 671.704 785.882 672.716L786.894 671.704C786.894 670.692 785.882 670.692 785.882 669.68L784.87 670.692ZM785.882 119.191L789.929 117.167C788.917 116.155 788.917 115.143 787.906 115.143C786.894 115.143 785.882 116.155 784.87 116.155L785.882 119.191ZM808.144 17.9981C807.132 19.01 807.132 19.01 807.132 19.01C807.132 20.0219 807.132 21.0338 808.144 21.0338L809.156 20.0219L808.144 17.9981ZM807.132 292.231C808.144 292.231 809.156 291.219 809.156 291.219L808.144 290.207L806.12 291.219C807.132 291.219 807.132 292.231 807.132 292.231ZM817.251 690.931L819.275 689.919C818.263 689.919 818.263 688.907 818.263 688.907C817.251 688.907 816.24 689.919 815.228 689.919L817.251 690.931ZM821.299 127.286L822.311 126.274C821.299 125.263 820.287 125.263 820.287 125.263C819.275 125.263 819.275 125.263 819.275 126.274L821.299 127.286ZM835.466 133.358C837.49 131.334 838.502 129.31 839.514 126.274C839.514 126.274 838.502 124.251 836.478 123.239C834.454 125.263 831.418 126.274 831.418 127.286C832.43 129.31 833.442 131.334 835.466 133.358ZM838.502 451.104L840.526 450.092L839.514 449.08C838.502 449.08 838.502 449.08 837.49 450.092L838.502 451.104ZM839.514 74.6661C840.526 74.6661 842.55 74.6661 843.562 73.6542C842.55 72.6422 842.55 71.6303 842.55 71.6303C840.526 71.6303 839.514 71.6303 838.502 72.6422C838.502 72.6422 838.502 74.6661 839.514 74.6661ZM851.657 190.026C851.657 189.014 852.669 188.002 852.669 186.99C852.669 185.978 852.669 184.966 851.657 182.942C851.657 183.954 850.645 184.966 850.645 185.978C850.645 186.99 850.645 189.014 851.657 190.026ZM860.764 404.555L861.776 403.543L860.764 401.519C860.764 402.531 859.753 402.531 859.753 402.531C860.764 403.543 860.764 404.555 860.764 404.555ZM863.8 173.835C864.812 173.835 864.812 173.835 864.812 172.823C864.812 172.823 864.812 171.811 863.8 170.799C863.8 171.811 862.788 171.811 862.788 171.811C863.8 172.823 863.8 173.835 863.8 173.835ZM873.919 317.529L874.931 315.505L873.919 314.493C872.908 315.505 872.908 315.505 872.908 316.517C872.908 316.517 872.908 317.529 873.919 317.529ZM886.063 317.529L887.075 316.517C887.075 315.505 886.063 315.505 885.051 315.505C885.051 314.493 885.051 315.505 884.039 316.517L886.063 317.529ZM920.468 469.318C920.468 469.318 921.48 469.318 921.48 468.306L919.456 467.294L918.444 468.306C919.456 469.318 920.468 469.318 920.468 469.318ZM980.172 419.734V420.746C981.184 419.734 983.208 419.734 984.22 418.722L981.184 416.698L978.148 418.722C979.16 419.734 979.16 419.734 980.172 419.734ZM998.387 417.71C998.387 416.698 999.399 416.698 999.399 415.686C998.387 415.686 998.387 414.674 998.387 413.662L997.375 415.686L998.387 417.71ZM1006.48 329.672C1007.49 329.672 1008.51 328.66 1009.52 328.66C1008.51 327.648 1008.51 327.648 1008.51 327.648C1007.49 327.648 1006.48 327.648 1005.47 328.66C1006.48 328.66 1006.48 329.672 1006.48 329.672ZM1017.61 472.354V473.366C1017.61 471.342 1018.63 470.33 1018.63 468.306C1017.61 467.294 1017.61 465.271 1016.6 464.259L1014.58 469.318L1017.61 472.354ZM1029.76 551.285H1028.74C1029.76 551.285 1029.76 550.273 1030.77 550.273C1029.76 549.261 1029.76 548.249 1029.76 548.249C1028.74 548.249 1028.74 549.261 1028.74 549.261C1028.74 550.273 1028.74 550.273 1029.76 551.285ZM1038.86 448.068C1038.86 448.068 1038.86 447.056 1039.88 446.044C1038.86 445.032 1036.84 445.032 1035.83 445.032C1034.82 445.032 1034.82 446.044 1034.82 447.056C1035.83 448.068 1036.84 448.068 1038.86 448.068ZM1061.13 494.617C1062.14 493.605 1062.14 491.581 1062.14 490.569C1062.14 489.557 1061.13 489.557 1060.11 489.557C1059.1 490.569 1059.1 491.581 1059.1 493.605C1059.1 493.605 1060.11 493.605 1061.13 494.617ZM1063.15 251.754C1064.16 250.742 1064.16 250.742 1065.17 250.742L1064.16 248.718L1062.14 250.742L1063.15 251.754ZM1076.31 448.068C1075.29 449.08 1075.29 449.08 1075.29 449.08C1075.29 450.092 1075.29 451.104 1076.31 451.104L1077.32 450.092C1077.32 449.08 1076.31 449.08 1076.31 448.068ZM1075.29 481.461V482.473C1076.31 481.461 1077.32 481.461 1077.32 480.45C1077.32 480.45 1077.32 479.438 1076.31 479.438C1076.31 480.45 1075.29 480.45 1074.28 480.45C1075.29 481.461 1075.29 481.461 1075.29 481.461ZM1085.41 638.31L1086.42 637.299L1085.41 635.275L1084.4 636.287C1084.4 637.298 1085.41 637.299 1085.41 638.31ZM1103.63 603.905C1104.64 603.905 1104.64 603.905 1104.64 602.893C1104.64 601.881 1104.64 601.881 1103.63 600.869V601.881C1103.63 602.893 1103.63 602.893 1103.63 603.905ZM1151.19 681.823V682.835C1151.19 681.823 1152.2 681.823 1152.2 680.811C1151.19 679.8 1151.19 679.8 1151.19 678.788C1150.18 678.788 1150.18 679.799 1150.18 679.799C1150.18 680.811 1150.18 680.811 1151.19 681.823ZM1151.19 669.68L1152.2 668.668C1151.19 667.656 1151.19 666.644 1151.19 666.644C1150.18 666.644 1150.18 667.656 1150.18 667.656C1150.18 668.668 1150.18 668.668 1151.19 669.68ZM1151.19 638.31L1152.2 637.299C1152.2 636.287 1151.19 636.287 1150.18 636.287C1150.18 635.275 1149.16 636.287 1149.16 637.299L1151.19 638.31ZM1163.33 600.869C1163.33 601.881 1162.32 601.881 1162.32 602.893L1163.33 603.905L1164.34 601.881L1163.33 600.869ZM1160.3 713.193L1161.31 712.181L1160.3 710.157C1160.3 710.157 1159.28 710.157 1159.28 711.169C1159.28 711.169 1160.3 712.181 1160.3 713.193ZM1163.33 672.716L1164.34 671.704C1164.34 670.692 1163.33 669.68 1163.33 669.68C1163.33 669.68 1162.32 669.68 1162.32 670.692C1162.32 670.692 1163.33 671.704 1163.33 672.716ZM1162.32 628.191V629.203C1163.33 628.191 1164.34 628.191 1165.35 627.179C1164.34 627.179 1164.34 626.167 1164.34 626.167C1163.33 626.167 1162.32 627.179 1161.31 627.179C1162.32 627.179 1162.32 628.191 1162.32 628.191ZM1172.44 684.859C1172.44 684.859 1174.46 683.847 1174.46 682.835C1174.46 681.823 1173.45 679.8 1173.45 678.788C1172.44 679.8 1171.43 679.799 1171.43 679.799C1171.43 681.823 1171.43 682.835 1172.44 684.859ZM1207.86 690.931L1208.87 685.871L1206.84 682.835C1205.83 683.847 1205.83 684.859 1205.83 686.883C1205.83 687.895 1206.84 689.919 1207.86 690.931Z" fill="black"/>
<path d="M1435.7 655.513C1434.69 661.585 1437.72 667.656 1442.78 670.692C1446.83 673.728 1446.83 676.764 1442.78 679.799C1440.76 680.811 1439.75 683.847 1437.72 684.859C1433.67 684.859 1433.67 685.871 1433.67 688.907C1432.66 692.955 1432.66 698.014 1433.67 702.062C1434.69 710.157 1434.69 710.157 1427.6 713.193C1414.45 716.229 1401.29 717.241 1389.15 714.205C1383.08 712.181 1378.02 712.181 1371.95 713.193C1362.84 716.229 1351.71 716.229 1341.59 713.193C1339.56 713.193 1337.54 712.181 1335.52 712.181C1330.46 712.181 1324.39 713.193 1321.35 710.157C1315.28 705.098 1308.19 701.05 1305.16 692.955C1304.15 688.907 1300.1 686.883 1304.15 683.847C1306.17 681.823 1308.19 678.788 1308.19 675.752C1314.27 665.633 1313.25 663.609 1305.16 654.501C1303.14 652.477 1302.12 650.454 1304.15 646.406C1310.22 637.299 1311.23 627.179 1306.17 618.072C1304.15 613.012 1305.16 608.965 1308.19 604.917C1313.25 597.833 1313.25 587.714 1308.19 579.619C1306.17 576.583 1305.16 575.571 1307.18 571.523C1309.21 568.487 1308.19 563.428 1308.19 559.38C1310.22 548.249 1306.17 537.118 1311.23 525.986C1312.24 524.974 1312.24 522.951 1311.23 521.939C1308.19 510.807 1308.19 498.664 1311.23 488.545C1314.27 478.426 1313.25 467.294 1308.19 458.187C1308.19 449.08 1309.21 439.972 1310.22 430.865C1312.24 421.758 1313.25 411.638 1311.23 402.531C1308.19 388.364 1308.19 373.185 1311.23 359.018C1313.25 353.958 1312.24 346.875 1308.19 341.815C1303.14 336.756 1305.16 329.672 1306.17 323.601C1308.2 319.553 1309.21 316.517 1310.22 312.469C1312.24 309.434 1312.24 305.386 1309.21 303.362C1304.15 299.314 1303.14 292.231 1306.17 286.159C1309.21 279.076 1309.21 270.98 1306.17 263.897C1304.15 257.825 1303.14 251.754 1307.18 247.706C1312.24 243.658 1313.25 237.587 1311.23 232.527C1308.19 225.443 1307.18 218.36 1308.19 212.288C1308.19 204.193 1308.19 196.098 1308.19 189.014C1306.17 180.919 1311.23 173.835 1309.21 165.74C1306.17 158.656 1306.17 150.561 1308.19 142.465C1312.24 132.346 1313.25 121.215 1310.22 110.084C1309.21 99.9643 1308.19 89.845 1308.19 79.7257C1312.24 69.6065 1313.25 57.4633 1310.22 46.3321C1309.21 40.2605 1308.19 33.177 1308.19 26.0935C1307.18 15.9742 1313.25 7.87882 1323.37 4.84301C1326.41 3.83109 1329.45 2.81918 1332.48 1.8072C1337.54 1.8072 1343.61 1.8072 1351.71 1.8072C1358.79 2.81918 1368.91 3.83109 1380.04 4.84301C1382.07 5.85492 1386.11 6.86684 1387.13 4.84301C1395.22 -3.25244 1404.33 0.795285 1413.44 2.81918C1422.54 3.83109 1431.65 6.86684 1432.66 19.01C1434.69 24.0696 1436.71 29.1293 1439.75 33.177C1442.78 35.2008 1442.78 39.2486 1440.76 42.2844C1433.67 50.3798 1433.67 62.5229 1440.76 70.6184C1444.81 76.6899 1436.71 77.7019 1438.73 81.7496C1429.63 89.845 1431.65 98.9524 1436.71 107.048C1438.73 110.084 1439.75 115.143 1437.72 118.179C1436.71 122.227 1435.7 126.274 1435.7 130.322C1434.69 141.453 1438.73 153.597 1432.66 164.728C1432.66 165.74 1432.66 168.775 1433.67 169.787C1437.72 178.895 1437.72 189.014 1434.69 198.121C1431.65 207.229 1431.65 216.336 1433.67 225.443C1435.7 236.575 1435.7 247.706 1433.67 258.837C1431.65 267.945 1431.65 277.052 1433.67 285.147C1435.7 290.207 1435.7 295.267 1435.7 299.314C1434.69 305.386 1437.72 311.457 1441.77 315.505C1446.83 319.553 1445.82 325.624 1440.76 326.636C1431.65 327.648 1432.66 332.708 1432.66 337.768C1431.65 342.827 1434.69 346.875 1438.73 348.899C1446.83 353.958 1446.83 355.982 1440.76 363.066C1438.73 366.102 1437.72 368.125 1435.7 370.149C1433.67 373.185 1433.67 376.221 1435.7 379.257C1437.72 381.281 1437.72 385.328 1439.75 388.364C1443.79 392.412 1442.78 395.448 1438.73 399.495C1433.67 407.591 1434.69 417.71 1439.75 424.793C1442.78 428.841 1442.78 430.865 1439.75 433.901C1438.73 434.913 1438.73 437.949 1437.72 438.96C1431.65 444.02 1430.64 453.127 1435.7 459.199C1437.72 462.235 1439.75 466.283 1438.73 468.306C1435.7 482.473 1434.69 496.64 1435.7 510.807C1435.7 512.831 1435.7 514.855 1434.69 516.879C1432.66 518.903 1432.66 520.927 1434.69 522.951C1435.7 523.962 1435.7 525.986 1435.7 526.998C1434.69 533.07 1433.67 538.129 1434.69 544.201C1435.7 549.261 1435.7 554.32 1433.67 559.38C1432.66 567.475 1432.66 575.571 1434.69 583.666C1437.72 593.786 1437.72 604.917 1434.69 615.036C1433.67 624.143 1432.66 633.251 1432.66 642.358C1437.72 645.394 1436.71 650.454 1435.7 655.513ZM1435.7 324.613C1434.69 323.601 1433.67 324.613 1433.67 324.613L1434.69 326.636H1436.71C1435.7 325.624 1435.7 324.613 1435.7 324.613ZM1313.25 211.276L1314.27 210.265C1314.27 209.253 1313.25 209.253 1313.25 208.241L1312.24 209.253C1312.24 210.265 1312.24 210.265 1313.25 211.276ZM1322.36 656.525L1323.37 655.513L1322.36 653.489C1322.36 654.501 1321.35 654.501 1321.35 654.501C1321.35 655.513 1322.36 656.525 1322.36 656.525ZM1334.51 625.155C1335.52 625.155 1335.52 624.143 1336.53 624.143L1335.52 623.132C1334.51 623.132 1334.51 624.143 1333.49 624.143L1334.51 625.155ZM1359.8 314.493C1359.8 313.481 1360.82 313.481 1360.82 313.481C1360.82 312.469 1359.8 311.457 1359.8 310.446L1358.79 312.469L1359.8 314.493ZM1368.91 245.682L1369.92 244.67L1368.91 242.646L1367.9 243.658C1368.91 243.658 1368.91 244.67 1368.91 245.682ZM1379.03 91.8689L1380.04 90.8569C1379.03 90.8569 1379.03 90.8569 1378.02 89.845L1377.01 90.8569L1379.03 91.8689ZM1391.17 473.366C1391.17 473.366 1390.16 473.366 1390.16 474.378C1390.16 474.378 1390.16 475.39 1391.17 476.402L1392.19 475.39L1391.17 473.366ZM1391.17 647.418L1392.19 646.406L1391.17 644.382L1390.16 645.394C1390.16 646.406 1390.16 646.406 1391.17 647.418ZM1390.16 533.07L1391.17 535.094L1392.19 534.082C1392.19 533.07 1391.17 533.07 1391.17 532.058L1390.16 533.07ZM1390.16 481.461L1392.19 480.45C1392.19 480.45 1392.19 479.438 1391.17 479.438C1391.17 480.45 1390.16 480.45 1389.15 480.45L1390.16 481.461ZM1395.22 292.231C1396.23 292.231 1398.26 291.219 1399.27 291.219C1398.26 290.207 1397.24 289.195 1396.23 289.195C1395.22 289.195 1394.21 290.207 1392.19 291.219C1393.2 291.219 1394.21 292.231 1395.22 292.231ZM1400.28 320.565L1401.29 319.553L1400.28 317.529C1400.28 317.529 1399.27 317.529 1399.27 318.541C1399.27 318.541 1400.28 319.553 1400.28 320.565ZM1412.42 388.364L1414.45 387.352L1413.44 386.34C1412.42 386.34 1412.42 387.352 1411.41 387.352L1412.42 388.364Z" fill="black"/>
<path d="M1658.05 651.466C1658.05 655.513 1660.07 658.549 1663.11 660.573C1668.16 663.609 1668.16 666.644 1665.13 670.692C1664.12 671.704 1662.09 673.728 1660.07 674.74C1654 679.8 1651.97 687.895 1656.02 694.978C1657.03 695.99 1658.05 699.026 1657.03 700.038C1652.99 703.074 1647.93 704.086 1644.89 707.122C1640.84 710.157 1636.8 710.157 1632.75 709.145C1623.64 707.122 1614.53 707.122 1605.43 709.145C1596.32 711.169 1586.2 711.169 1577.09 709.145C1569 708.134 1559.89 707.122 1551.79 707.122C1535.6 707.122 1533.58 706.11 1530.54 689.919C1529.53 687.895 1529.53 685.871 1528.52 685.871C1520.42 680.811 1525.48 673.728 1528.52 670.692C1531.55 667.656 1533.58 663.609 1533.58 659.561C1533.58 654.501 1532.57 650.454 1529.53 647.418C1526.49 643.37 1526.49 638.31 1527.51 633.251C1530.54 624.143 1530.54 615.036 1527.51 605.929C1526.49 603.905 1526.49 600.869 1527.51 599.857C1532.57 594.798 1529.53 587.714 1530.54 582.654C1531.55 571.523 1527.51 561.404 1533.58 550.273C1534.59 547.237 1534.59 543.189 1533.58 540.153C1529.53 526.998 1529.53 512.831 1530.54 499.676C1536.61 490.569 1532.57 481.461 1533.58 472.354C1528.52 467.294 1530.54 460.211 1530.54 453.127C1531.55 443.008 1532.57 432.889 1533.58 421.758C1534.59 416.698 1533.58 410.626 1530.54 406.579C1527.51 402.531 1526.49 397.471 1528.52 392.412C1530.54 387.352 1532.57 382.292 1533.58 377.233C1533.58 374.197 1534.59 370.149 1532.57 368.125C1529.53 365.09 1530.54 361.042 1530.54 356.994C1530.54 351.935 1534.59 347.887 1530.54 341.815C1528.52 338.78 1530.54 332.708 1527.51 327.648C1525.48 322.589 1525.48 317.529 1529.53 313.481C1532.57 310.446 1534.59 307.41 1534.59 303.362C1534.59 299.314 1532.57 296.279 1529.53 293.243C1525.48 289.195 1526.49 283.123 1527.51 279.076C1529.53 268.956 1529.53 259.849 1527.51 249.73C1526.49 246.694 1528.52 243.658 1530.54 240.622C1531.55 235.563 1535.6 231.515 1531.55 225.443C1528.52 220.384 1530.54 212.288 1530.54 205.205C1530.54 204.193 1531.55 203.181 1532.57 202.169C1538.64 199.133 1545.72 195.086 1551.79 192.05C1554.83 189.014 1558.88 188.002 1562.92 190.026C1569 195.086 1575.07 192.05 1580.13 193.062C1583.16 193.062 1585.19 192.05 1587.21 190.026C1595.31 184.966 1595.31 184.966 1602.39 192.05C1606.44 195.086 1609.47 198.121 1615.54 194.074C1617.57 192.05 1621.62 191.038 1624.65 190.026C1628.7 189.014 1633.76 189.014 1637.81 190.026C1643.88 194.074 1649.95 198.121 1655.01 203.181C1655.01 204.193 1655.01 205.205 1655.01 206.217C1655.01 220.384 1657.03 234.551 1659.06 248.718C1658.05 256.813 1657.03 264.909 1655.01 271.992C1652.99 281.1 1658.05 290.207 1658.05 299.314C1658.05 301.338 1661.08 303.362 1663.11 305.386C1669.18 309.434 1669.18 310.446 1665.13 315.505C1663.11 318.541 1660.07 319.553 1658.05 322.589C1652.99 328.66 1654 334.732 1661.08 339.791C1662.09 339.791 1664.12 340.803 1665.13 341.815C1668.16 343.839 1669.18 345.863 1666.14 348.899C1661.08 352.947 1658.05 360.03 1658.05 366.102C1658.05 369.137 1659.06 373.185 1661.08 376.221C1666.14 381.281 1665.13 385.328 1660.07 391.4C1657.03 394.436 1655.01 398.483 1655.01 403.543C1655.01 407.591 1657.03 412.65 1660.07 414.674C1664.12 418.722 1667.15 421.758 1662.09 426.817C1657.03 432.889 1655.01 443.008 1659.06 451.104C1661.08 455.151 1661.08 460.211 1659.06 465.271C1657.03 472.354 1656.02 481.461 1659.06 488.545C1661.08 494.617 1660.07 501.7 1657.03 506.76C1655.01 510.807 1654 515.867 1655.01 520.927C1658.05 535.094 1658.05 549.261 1655.01 562.416C1654 571.523 1654 580.63 1657.03 589.738C1659.06 598.845 1659.06 608.965 1657.03 618.072C1654 629.203 1654 641.346 1658.05 651.466ZM1537.63 694.978C1538.64 693.967 1538.64 692.955 1538.64 692.955C1538.64 691.943 1538.64 691.943 1537.63 691.943L1536.61 693.967L1537.63 694.978ZM1537.63 383.304L1539.65 381.281L1537.63 380.269C1537.63 380.269 1537.63 381.281 1536.61 382.292C1536.61 382.292 1537.63 382.292 1537.63 383.304ZM1540.66 651.466C1541.67 650.454 1541.67 650.454 1541.67 650.454C1541.67 649.442 1541.67 648.43 1540.66 647.418C1540.66 648.43 1540.66 648.43 1540.66 648.43C1540.66 649.442 1540.66 650.454 1540.66 651.466ZM1540.66 218.36V217.348C1541.67 217.348 1541.67 217.348 1541.67 217.348C1541.67 216.336 1541.67 215.324 1540.66 215.324C1540.66 215.324 1540.66 215.324 1540.66 216.336C1540.66 216.336 1540.66 217.348 1540.66 218.36ZM1572.03 348.899L1573.04 346.875L1572.03 345.863C1572.03 346.875 1572.03 346.875 1571.02 347.887L1572.03 348.899ZM1572.03 341.815L1574.06 340.803C1574.06 339.791 1574.06 337.768 1573.04 336.756C1572.03 336.756 1571.02 337.768 1571.02 337.768C1571.02 339.791 1571.02 340.803 1572.03 341.815ZM1581.14 454.139C1582.15 454.139 1582.15 453.127 1583.16 453.127L1582.15 452.116C1581.14 452.116 1581.14 453.127 1580.13 453.127L1581.14 454.139ZM1594.29 660.573L1595.31 659.561L1594.29 657.537L1593.28 658.549C1593.28 658.549 1593.28 659.561 1594.29 660.573ZM1606.44 429.853L1607.45 428.841C1607.45 427.829 1606.44 427.829 1606.44 426.817L1605.43 427.829C1605.43 428.841 1606.44 428.841 1606.44 429.853ZM1606.44 230.503C1606.44 229.491 1607.45 229.491 1607.45 229.491C1607.45 228.479 1606.44 227.467 1606.44 227.467L1605.43 228.479C1605.43 229.491 1606.44 229.491 1606.44 230.503ZM1615.54 407.591C1616.56 407.591 1616.56 407.591 1616.56 406.579C1616.56 406.579 1616.56 405.567 1615.54 404.555L1614.53 405.567L1615.54 407.591ZM1619.59 286.159C1619.59 282.112 1620.6 279.076 1620.6 276.04C1620.6 274.016 1620.6 271.992 1620.6 269.968C1620.6 268.956 1618.58 267.945 1618.58 267.945L1617.57 268.956C1617.57 270.98 1617.57 273.004 1617.57 275.028C1618.58 279.076 1615.54 283.123 1619.59 286.159ZM1625.66 638.31L1626.68 636.287L1625.66 632.239C1624.65 633.251 1623.64 634.263 1623.64 634.263C1623.64 636.287 1624.65 637.299 1625.66 638.31ZM1628.7 329.672L1630.72 317.529C1628.7 312.469 1631.74 307.41 1627.69 302.35C1626.68 307.41 1626.68 312.469 1626.68 317.529C1627.69 321.577 1624.65 326.636 1628.7 329.672ZM1631.74 342.827L1635.78 341.815C1634.77 340.803 1633.76 339.791 1632.75 339.791C1631.74 339.791 1630.72 339.791 1630.72 340.803L1631.74 342.827ZM1636.8 269.968C1637.81 269.968 1638.82 269.968 1638.82 268.956C1638.82 267.945 1638.82 265.921 1638.82 264.909C1637.81 265.921 1635.78 265.921 1635.78 265.921C1636.8 267.945 1636.8 268.956 1636.8 269.968ZM1643.88 417.71C1643.88 416.698 1644.89 416.698 1644.89 416.698C1644.89 415.686 1643.88 414.674 1643.88 414.674C1643.88 414.674 1642.87 414.674 1642.87 415.686C1642.87 415.686 1643.88 416.698 1643.88 417.71ZM1649.95 681.823C1650.96 681.823 1650.96 680.811 1650.96 679.799C1650.96 679.799 1650.96 679.8 1649.95 678.788L1648.94 680.811L1649.95 681.823ZM1530.54 81.7496C1533.58 63.5349 1535.6 60.4991 1528.52 46.3321C1527.51 45.3202 1526.49 43.2963 1527.51 42.2844C1530.54 34.1889 1529.53 24.0696 1535.6 17.9981C1538.64 14.9623 1540.66 10.9146 1545.72 11.9265C1547.75 12.9385 1550.78 9.90265 1552.81 9.90265C1560.9 9.90265 1567.98 1.8072 1576.08 8.89073C1583.16 7.87882 1589.23 10.9146 1596.32 7.87882C1601.38 4.84301 1606.44 5.85492 1611.5 7.87882C1618.58 11.9265 1627.69 9.90265 1632.75 4.84301C1634.77 2.81918 1636.8 1.8072 1639.83 2.81918C1641.85 2.81918 1644.89 3.83109 1645.9 5.85492C1650.96 12.9385 1656.02 19.01 1662.09 24.0696C1663.11 25.0816 1664.12 27.1055 1664.12 29.1293C1664.12 31.1532 1663.11 33.177 1662.09 35.2008L1661.08 36.2128C1650.96 46.3321 1649.95 47.344 1659.06 58.4752C1664.12 63.5349 1664.12 68.5945 1661.08 72.6422C1654 80.7377 1650.96 87.8212 1660.07 96.9286C1663.11 100.976 1662.09 107.048 1659.06 110.084C1652.99 115.143 1647.93 120.203 1642.87 125.263C1640.84 126.274 1638.82 127.286 1636.8 127.286C1628.7 127.286 1621.62 127.286 1614.53 127.286V128.298C1600.37 127.286 1585.19 125.263 1571.02 124.251C1566.97 124.251 1563.94 125.263 1560.9 126.274C1550.78 130.322 1539.65 125.263 1534.59 115.143C1529.53 105.024 1527.51 92.8808 1530.54 81.7496ZM1634.77 115.143C1632.75 115.143 1631.74 115.143 1630.72 116.155C1630.72 117.167 1630.72 118.179 1631.74 118.179C1632.75 118.179 1634.77 118.179 1635.78 117.167C1634.77 116.155 1634.77 115.143 1634.77 115.143Z" fill="black"/>
<path d="M2206.26 627.179C2213.34 633.251 2213.34 633.251 2207.27 640.334C2204.23 642.358 2203.22 646.406 2203.22 650.454C2202.21 654.501 2204.23 657.537 2207.27 660.573C2208.28 662.597 2210.31 665.633 2211.32 667.656C2211.32 669.68 2211.32 671.704 2210.31 672.716C2208.28 675.752 2205.25 678.788 2203.22 680.811C2201.2 682.835 2199.17 685.871 2199.17 688.907C2200.19 692.955 2198.16 698.014 2195.13 702.062C2191.08 705.098 2186.02 707.122 2181.97 707.122C2171.85 707.122 2162.75 708.134 2153.64 707.122C2150.6 707.122 2147.57 706.11 2144.53 707.122C2134.41 711.169 2122.27 711.169 2112.15 707.122C2106.08 706.11 2100.01 706.11 2093.93 707.122C2091.91 707.122 2088.87 707.122 2087.86 706.11C2085.84 700.038 2081.79 694.978 2078.75 690.931C2072.68 683.847 2075.72 678.788 2078.75 672.716C2083.81 665.633 2082.8 655.513 2076.73 648.43C2074.71 646.406 2074.71 642.358 2075.72 639.322C2079.77 633.251 2077.74 628.191 2078.75 622.12C2078.75 620.096 2078.75 619.084 2078.75 617.06C2074.71 606.941 2074.71 605.929 2078.75 598.845C2082.8 592.774 2082.8 584.678 2077.74 579.619C2074.71 575.571 2070.66 570.511 2076.73 563.428C2078.76 559.38 2080.78 554.32 2081.79 549.261C2081.79 548.249 2080.78 546.225 2079.77 545.213C2074.71 542.177 2073.7 535.094 2076.73 530.034C2078.76 524.974 2078.75 519.915 2078.75 514.855C2077.74 505.748 2078.75 496.64 2080.78 487.533C2081.79 481.461 2081.79 474.378 2079.77 469.318C2077.74 458.187 2077.74 448.068 2078.75 437.949C2081.79 426.817 2081.79 415.686 2078.75 404.555C2078.75 400.507 2077.74 396.459 2078.75 392.412C2077.74 386.34 2079.77 380.269 2073.7 375.209C2071.67 373.185 2072.68 367.114 2073.7 364.078C2074.71 362.054 2075.72 360.03 2075.72 358.006C2074.71 355.982 2073.7 353.958 2071.67 352.947C2070.66 350.923 2069.65 348.899 2069.65 347.887C2062.56 335.744 2054.47 324.613 2044.35 315.505C2043.34 313.481 2037.27 314.493 2036.25 311.457C2032.21 306.398 2025.12 313.481 2021.08 308.422C2018.04 304.374 2010.96 304.374 2005.9 301.338C1999.82 299.314 1993.75 299.314 1987.68 301.338C1981.61 304.374 1974.53 304.374 1967.44 302.35C1963.4 300.326 1962.38 302.35 1960.36 303.362C1957.32 307.41 1955.3 312.469 1952.26 314.493C1947.2 315.505 1942.14 316.517 1937.08 315.505C1932.03 314.493 1925.95 316.517 1922.92 320.565C1914.82 328.66 1906.73 336.756 1898.63 343.839C1895.6 346.875 1895.6 351.935 1897.62 354.97C1900.66 362.054 1900.66 364.078 1893.57 366.102C1884.46 371.161 1878.39 380.269 1878.39 390.388C1876.37 394.436 1875.36 397.471 1875.36 401.519C1875.36 404.555 1878.39 407.591 1877.38 410.626C1877.38 418.722 1875.36 425.805 1873.33 432.889C1873.33 434.913 1871.31 435.925 1872.32 436.937C1875.36 451.104 1876.37 466.283 1874.35 481.461C1875.36 489.557 1872.32 497.652 1872.32 505.748C1872.32 516.879 1874.35 526.998 1875.36 538.13C1881.43 541.165 1877.38 546.225 1875.36 549.261C1871.31 555.332 1871.31 563.428 1872.32 570.511C1872.32 572.535 1873.33 573.547 1875.36 574.559C1876.37 576.583 1878.39 576.583 1879.41 576.583C1882.44 575.571 1884.46 576.583 1884.46 580.63C1884.46 582.654 1884.46 584.678 1880.42 585.69C1878.39 585.69 1875.36 589.738 1875.36 591.762C1875.36 596.821 1872.32 602.893 1877.38 606.941C1879.4 608.965 1882.44 610.988 1883.45 614.024C1884.46 616.048 1886.49 620.096 1881.43 622.12C1878.39 623.131 1876.37 625.155 1874.35 627.179C1872.32 629.203 1871.31 631.227 1873.33 633.251C1874.35 635.275 1874.35 637.299 1875.36 638.31C1878.39 643.37 1884.46 647.418 1883.45 651.466C1883.45 655.513 1877.38 659.561 1874.35 663.609C1871.31 668.668 1871.31 673.728 1874.35 677.776C1883.45 688.907 1883.45 688.907 1871.31 698.014C1867.26 700.038 1864.23 704.086 1863.21 708.134C1860.18 714.205 1857.14 714.205 1851.07 711.169C1843.99 707.122 1835.89 703.074 1827.8 710.157C1821.73 709.145 1814.64 712.181 1807.56 708.134C1804.52 706.11 1800.47 706.11 1797.44 707.122C1790.36 711.169 1782.26 711.169 1775.18 708.134C1766.07 705.098 1761.01 697.002 1754.94 690.931C1753.93 689.919 1753.93 688.907 1753.93 686.883C1753.93 679.8 1752.91 672.716 1750.89 665.633C1749.88 662.597 1751.9 658.549 1753.93 654.501C1757.97 647.418 1756.96 637.299 1749.88 631.227C1746.84 629.203 1746.84 627.179 1749.88 624.143C1754.94 617.06 1754.94 605.929 1749.88 598.845C1746.84 595.809 1746.84 590.75 1748.87 587.714C1750.89 584.678 1752.91 581.642 1752.91 577.595C1753.93 570.511 1754.94 563.428 1746.84 559.38C1742.79 556.344 1743.81 553.308 1746.84 550.273C1748.87 549.261 1750.89 547.237 1752.91 545.213C1756.96 539.141 1756.96 535.094 1751.9 528.01C1750.89 525.986 1749.88 523.963 1748.87 521.939C1747.85 519.915 1747.85 516.879 1747.85 516.879C1754.94 510.807 1756.96 501.7 1752.91 494.617C1749.88 485.509 1750.89 475.39 1754.94 467.294C1755.95 465.271 1755.95 462.235 1754.94 461.223C1750.89 452.116 1749.88 440.984 1752.91 431.877C1754.94 421.758 1754.94 411.638 1751.9 402.531C1750.89 392.412 1749.88 381.281 1750.89 371.161C1755.95 367.114 1753.93 362.054 1753.93 356.994C1753.93 349.911 1753.93 341.815 1753.93 334.732C1753.93 331.696 1754.94 328.66 1753.93 326.636C1746.84 319.553 1753.93 312.469 1753.93 305.386C1761.01 298.302 1754.94 292.231 1750.89 287.171C1746.84 280.088 1746.84 280.088 1750.89 274.016C1754.94 265.921 1754.94 257.825 1750.89 250.742C1746.84 246.694 1747.85 244.67 1749.88 240.622C1752.91 236.575 1753.93 231.515 1753.93 226.455C1752.91 221.396 1754.94 217.348 1756.96 213.3C1758.99 211.276 1761.01 209.253 1763.03 209.253C1769.1 208.241 1774.16 207.229 1780.24 205.205C1787.32 201.157 1796.43 202.169 1802.5 207.229C1804.52 208.241 1806.55 208.241 1807.56 207.229C1815.65 206.217 1823.75 201.157 1831.84 203.181C1840.95 205.205 1852.08 206.217 1862.2 206.217C1864.23 205.205 1865.24 206.217 1867.26 207.229C1868.27 208.241 1869.29 210.265 1869.29 212.288C1868.27 217.348 1867.26 222.408 1867.26 226.455C1868.27 231.515 1873.33 236.575 1871.31 241.634C1870.3 246.694 1874.35 249.73 1878.39 252.766C1879.4 253.778 1880.42 254.789 1882.44 254.789C1884.46 254.789 1886.49 253.778 1887.5 252.766C1893.57 243.658 1905.72 241.634 1909.76 230.503C1910.77 227.467 1914.82 225.443 1917.86 225.443C1922.92 223.42 1926.97 220.384 1928.99 216.336C1931.01 211.276 1935.06 209.253 1940.12 209.253C1948.22 208.241 1956.31 206.217 1963.4 204.193C1973.51 202.169 1982.62 199.133 1991.73 194.074C1998.81 192.05 2006.91 192.05 2013.99 194.074C2024.11 196.098 2035.24 197.109 2046.37 196.098C2048.4 196.098 2050.42 193.062 2054.47 193.062C2055.48 193.062 2056.49 193.062 2057.5 193.062C2062.56 195.086 2067.62 197.109 2072.68 198.121C2081.79 200.145 2088.87 207.229 2097.98 200.145C2098.99 199.133 2102.03 200.145 2103.04 201.157C2113.16 211.276 2124.29 220.384 2136.43 227.467C2144.53 233.539 2152.63 239.61 2159.71 246.694C2168.82 256.813 2176.91 269.968 2181.97 283.123C2181.97 284.135 2182.98 286.159 2184 288.183C2185.01 294.255 2191.08 296.279 2193.1 301.338C2195.13 305.386 2192.09 312.469 2195.13 316.517C2197.15 322.589 2197.15 328.66 2196.14 333.72C2196.14 339.791 2198.16 345.863 2203.22 349.911C2210.31 356.994 2211.32 358.006 2205.25 367.114C2202.21 373.185 2201.2 380.269 2204.23 386.34C2205.25 389.376 2206.26 393.424 2205.25 396.459C2201.2 406.579 2201.2 418.722 2205.25 428.841C2206.26 430.865 2204.23 434.913 2203.22 436.937C2200.19 444.02 2196.14 451.104 2202.21 459.199C2203.22 472.354 2203.22 486.521 2201.2 500.688C2199.17 507.772 2199.17 515.867 2201.2 523.963C2203.22 535.094 2203.22 546.225 2201.2 557.356C2198.16 566.464 2199.17 575.571 2203.22 583.666C2204.23 586.702 2205.25 588.726 2206.26 589.738C2213.34 596.821 2213.34 595.809 2208.28 602.893C2205.25 604.917 2204.23 606.941 2203.22 609.976C2199.17 619.084 2199.17 619.084 2206.26 627.179ZM1761.01 484.497L1762.02 483.485C1762.02 483.485 1761.01 482.473 1761.01 481.461L1760 482.473L1761.01 484.497ZM1773.15 454.139L1774.16 452.116L1773.15 451.104C1773.15 452.116 1772.14 453.127 1772.14 453.127L1773.15 454.139ZM1824.76 281.1L1825.77 280.088L1824.76 278.064L1823.75 279.076C1823.75 280.088 1824.76 280.088 1824.76 281.1ZM1833.87 271.992L1834.88 269.968L1833.87 268.956C1833.87 269.968 1832.86 269.968 1832.86 270.98L1833.87 271.992ZM1836.9 445.032L1837.92 444.02C1837.92 443.008 1836.9 443.008 1835.89 443.008C1835.89 443.008 1835.89 443.008 1834.88 444.02L1836.9 445.032ZM1842.98 615.036C1842.98 615.036 1843.99 614.024 1843.99 613.012L1842.98 612L1841.96 614.024L1842.98 615.036ZM1846.01 441.996L1847.02 439.972L1846.01 438.96C1846.01 439.972 1845 439.972 1845 440.984L1846.01 441.996ZM1897.62 259.849L1898.63 257.825L1897.62 256.813C1897.62 256.813 1896.61 257.825 1896.61 258.837L1897.62 259.849ZM1934.05 226.455L1935.06 224.432L1934.05 223.42C1934.05 224.432 1933.04 224.432 1933.04 225.443L1934.05 226.455ZM2021.08 267.945L2022.09 268.956C2023.1 268.956 2024.11 268.956 2026.13 268.956V265.921C2024.11 265.921 2023.1 265.921 2021.08 265.921V267.945ZM2032.21 245.682V244.67C2032.21 244.67 2031.19 244.67 2030.18 245.682C2030.18 245.682 2031.19 246.694 2031.19 247.706L2032.21 245.682ZM2034.23 244.67C2034.23 244.67 2035.24 243.658 2035.24 242.646L2034.23 241.634L2032.21 243.658L2034.23 244.67ZM2043.34 302.35C2043.34 301.338 2044.35 301.338 2044.35 300.326L2043.34 299.314L2042.33 301.338L2043.34 302.35ZM2047.39 281.1C2046.37 283.123 2045.36 284.135 2045.36 285.147L2047.39 286.159L2051.43 282.112C2049.41 282.112 2047.39 281.1 2047.39 281.1ZM2049.41 314.493C2053.46 312.469 2055.48 308.422 2053.46 304.374C2053.46 303.362 2052.44 303.362 2052.44 302.35C2049.41 304.374 2047.39 307.41 2045.36 309.434C2044.35 310.446 2045.36 312.469 2045.36 314.493C2046.37 314.493 2048.4 314.493 2049.41 314.493ZM2061.55 259.849C2062.56 258.837 2062.56 257.825 2063.58 255.801C2063.58 254.789 2062.56 254.789 2061.55 253.778L2060.54 256.813L2061.55 259.849ZM2091.91 314.493L2092.92 313.481L2091.91 311.457L2090.9 312.469C2091.91 313.481 2091.91 313.481 2091.91 314.493ZM2107.09 593.786L2108.1 592.774C2108.1 591.762 2108.1 590.75 2107.09 590.75L2106.08 591.762C2107.09 591.762 2107.09 592.774 2107.09 593.786ZM2107.09 553.308V554.32C2107.09 553.308 2108.1 553.308 2109.11 552.297L2108.1 551.285L2106.08 552.297C2106.08 553.308 2106.08 553.308 2107.09 553.308ZM2108.1 380.269L2109.11 379.257C2108.1 379.257 2107.09 379.257 2107.09 378.245C2106.08 378.245 2106.08 379.257 2106.08 379.257L2108.1 380.269ZM2128.34 530.034C2128.34 529.022 2129.35 529.022 2129.35 528.01L2128.34 526.998L2127.33 529.022L2128.34 530.034ZM2129.35 378.245C2129.35 377.233 2129.35 375.209 2129.35 373.185C2129.35 373.185 2128.34 373.185 2128.34 372.173C2127.33 373.185 2127.33 375.209 2127.33 376.221C2127.33 377.233 2128.34 377.233 2129.35 378.245ZM2140.48 539.141L2141.49 538.13L2140.48 536.106L2139.47 537.118C2139.47 537.118 2140.48 538.129 2140.48 539.141ZM2170.84 375.209C2170.84 376.221 2169.83 376.221 2169.83 376.221C2169.83 376.221 2170.84 377.233 2170.84 378.245L2171.85 377.233L2170.84 375.209ZM2161.73 584.678L2162.75 583.666L2161.73 581.642L2160.72 582.654C2160.72 582.654 2161.73 583.666 2161.73 584.678ZM2170.84 581.642L2171.85 579.619L2170.84 578.607C2170.84 578.607 2169.83 579.619 2169.83 580.63C2169.83 580.63 2170.84 580.631 2170.84 581.642ZM2170.84 563.428L2171.85 561.404L2170.84 560.392C2170.84 560.392 2169.83 561.404 2169.83 562.416C2169.83 562.416 2170.84 562.416 2170.84 563.428ZM2170.84 462.235V463.247C2170.84 462.235 2171.85 462.235 2172.86 461.223L2170.84 460.211L2169.83 461.223C2169.83 462.235 2169.83 462.235 2170.84 462.235ZM2173.88 399.495L2174.89 398.483C2174.89 397.471 2173.88 396.459 2173.88 396.459L2172.86 397.471C2172.86 397.471 2173.88 398.483 2173.88 399.495ZM2192.09 378.245L2193.1 377.233L2192.09 375.209L2191.08 376.221C2191.08 376.221 2192.09 377.233 2192.09 378.245Z" fill="black"/>
<path d="M2782.49 707.122C2781.48 708.134 2779.45 710.157 2777.43 711.169C2775.4 713.193 2774.39 715.217 2774.39 717.241C2774.39 719.265 2775.4 722.301 2777.43 723.312C2779.45 725.336 2780.46 727.36 2781.48 729.384C2785.52 737.479 2785.52 738.491 2779.45 743.551C2774.39 747.599 2774.39 753.67 2772.37 758.73C2769.33 763.79 2775.4 767.837 2778.44 769.861C2780.46 772.897 2779.45 777.957 2776.42 777.957C2773.38 776.945 2770.35 777.957 2767.31 779.98C2765.29 782.004 2763.26 786.052 2763.26 789.088C2762.25 797.183 2759.21 804.267 2754.15 810.338C2750.11 816.41 2747.07 824.505 2743.02 830.577C2741 833.613 2739.99 836.649 2741 840.696C2739.99 850.816 2741 851.827 2729.87 852.839C2725.82 852.839 2722.78 855.875 2721.77 859.923C2721.77 865.994 2716.71 871.054 2710.64 872.066C2706.59 872.066 2702.55 876.114 2703.56 880.161C2703.56 882.185 2702.55 884.209 2700.52 886.233C2698.5 887.245 2696.47 888.257 2694.45 887.245C2692.43 887.245 2690.4 887.245 2687.37 887.245C2680.28 888.257 2679.27 889.269 2681.3 898.376C2682.31 901.412 2681.3 903.436 2677.25 903.436C2676.24 902.424 2674.21 902.424 2672.19 901.412C2666.12 899.388 2660.04 899.388 2654.99 902.424C2651.95 905.46 2646.89 906.472 2642.84 906.472C2635.76 906.472 2630.7 912.543 2625.64 917.603C2621.59 921.65 2618.56 923.674 2612.48 919.627C2609.45 918.615 2604.39 917.603 2602.36 919.627C2596.29 924.686 2590.22 921.651 2585.16 921.651C2576.05 921.651 2567.96 921.65 2562.9 929.746C2560.88 932.782 2558.85 931.77 2556.83 929.746C2552.78 926.71 2548.73 924.686 2543.67 924.686C2538.61 924.686 2534.57 927.722 2531.53 930.758C2524.45 936.829 2522.42 935.818 2516.35 927.722C2514.33 923.674 2510.28 921.651 2506.23 921.651C2502.18 921.651 2498.14 923.674 2495.1 926.71C2494.09 928.734 2492.06 930.758 2490.04 931.77C2485.99 934.806 2483.97 934.806 2480.93 931.77C2476.89 927.722 2472.84 923.674 2467.78 921.651C2463.73 919.627 2461.71 917.603 2456.65 920.639C2455.64 921.651 2450.58 922.662 2450.58 921.651C2444.5 912.543 2433.37 918.615 2425.28 912.543C2422.24 911.531 2418.19 909.507 2414.15 909.507C2410.1 908.495 2406.05 904.448 2400.99 909.507C2398.97 911.531 2392.9 909.507 2389.86 908.495C2385.81 907.483 2385.81 903.436 2384.8 899.388C2384.8 897.364 2381.76 895.34 2378.73 894.328C2366.59 887.245 2355.45 878.138 2346.35 868.018C2342.3 864.983 2340.28 859.923 2337.24 856.887C2334.2 853.851 2329.14 851.827 2326.11 848.792C2321.05 843.732 2315.99 837.66 2312.95 830.577C2310.93 823.493 2306.88 816.41 2300.81 811.35C2296.76 808.314 2297.77 805.279 2297.77 801.231C2298.79 795.159 2297.77 788.076 2293.73 783.016C2290.69 773.909 2290.69 764.802 2292.71 755.694C2293.73 750.635 2298.79 746.587 2303.85 747.599C2310.93 748.611 2318.01 746.587 2324.08 742.539C2325.1 741.527 2327.12 740.515 2329.14 741.527C2339.26 746.587 2349.38 743.551 2359.5 744.563C2365.57 745.575 2372.66 742.539 2377.72 747.599C2382.78 743.551 2389.86 744.563 2395.93 744.563C2403.01 743.551 2410.1 747.599 2413.13 754.682C2414.15 756.706 2414.15 758.73 2415.16 759.742C2423.25 765.813 2428.31 776.945 2426.29 787.064C2426.29 789.088 2429.32 794.147 2430.34 794.147C2435.4 793.136 2439.44 796.171 2440.46 800.219C2440.46 802.243 2444.5 802.243 2446.53 804.267C2448.55 806.291 2449.56 807.303 2451.59 804.267C2455.64 806.291 2461.71 808.314 2462.72 812.362C2464.74 818.434 2468.79 819.446 2472.84 820.458C2479.92 822.482 2487.01 825.517 2494.09 828.553C2498.14 829.565 2502.18 829.565 2506.23 827.541C2510.28 824.505 2515.34 823.493 2520.4 825.517C2532.54 831.589 2543.67 826.529 2555.82 828.553C2556.83 828.553 2557.84 828.553 2559.86 827.541C2567.96 823.493 2577.07 820.458 2586.17 819.446C2592.25 817.422 2598.32 814.386 2603.38 810.338C2616.53 800.219 2627.66 788.076 2636.77 774.921C2640.82 768.849 2643.85 762.778 2643.85 755.694C2643.85 749.623 2644.87 743.551 2647.9 738.491C2651.95 732.42 2648.91 726.348 2649.93 721.289C2648.91 713.193 2650.94 705.098 2653.97 698.014C2656 695.99 2657.01 692.955 2657.01 689.919C2656 686.883 2654.99 684.859 2652.96 682.835C2645.88 677.776 2643.85 671.704 2649.93 664.621C2650.94 663.609 2650.94 661.585 2649.93 660.573C2648.91 658.549 2645.88 657.537 2645.88 657.537C2637.78 664.621 2625.64 663.609 2620.58 674.74C2614.51 681.823 2607.42 687.895 2600.34 692.955C2597.31 693.967 2595.28 694.978 2593.26 694.978C2585.16 695.99 2583.14 698.014 2581.11 706.11C2581.11 708.134 2580.1 711.169 2578.08 712.181C2575.04 714.205 2573.02 714.205 2569.98 713.193C2561.89 709.145 2551.77 709.145 2542.66 712.181C2540.64 713.193 2538.61 713.193 2536.59 713.193C2522.42 711.169 2508.26 717.241 2493.08 716.229C2489.03 716.229 2487.01 719.265 2484.98 721.289C2480.93 726.348 2478.91 727.36 2474.86 723.312C2473.85 723.312 2473.85 722.301 2472.84 721.289C2468.79 717.241 2466.77 711.169 2459.68 713.193C2453.61 714.205 2448.55 712.181 2443.49 718.253C2441.47 721.289 2439.44 720.277 2437.42 716.229C2435.4 710.157 2430.34 706.11 2423.25 707.122C2417.18 705.098 2412.12 703.074 2407.06 699.026C2402 695.99 2396.94 693.967 2391.88 694.978C2388.85 695.99 2386.82 694.978 2384.8 693.967C2381.76 692.955 2380.75 690.931 2379.74 687.895C2378.73 683.847 2373.67 685.871 2370.63 685.871C2365.57 685.871 2361.53 683.847 2360.51 678.788C2358.49 675.752 2356.47 672.716 2353.43 670.692C2348.37 666.644 2343.31 660.573 2340.28 654.501C2339.26 651.465 2335.22 650.454 2332.18 647.418C2329.14 646.406 2327.12 644.382 2325.1 642.358C2315.99 629.203 2305.87 617.06 2295.75 606.941C2292.71 603.905 2290.69 600.869 2291.7 596.821C2291.7 590.75 2290.69 584.678 2287.66 579.619C2286.64 578.607 2285.63 576.583 2285.63 574.559C2284.62 567.475 2282.6 561.404 2279.56 555.332C2273.49 546.225 2273.49 534.082 2266.4 524.974C2265.39 522.951 2265.39 520.927 2266.4 518.903C2274.5 506.76 2268.43 498.664 2260.33 490.569C2257.3 487.533 2257.3 485.509 2260.33 480.45C2264.38 472.354 2265.39 462.235 2263.37 453.127C2258.31 448.068 2262.36 444.02 2263.37 439.972C2265.39 431.877 2265.39 423.782 2263.37 416.698C2260.33 412.65 2260.33 406.579 2265.39 402.531C2270.45 395.448 2272.48 385.328 2268.43 377.233C2267.42 373.185 2265.39 370.149 2268.43 367.114C2278.55 361.042 2277.54 348.899 2282.6 338.78C2283.61 335.744 2285.63 332.708 2284.62 329.672C2282.6 316.517 2290.69 310.446 2297.77 303.362C2299.8 301.338 2302.83 300.326 2302.83 298.302C2306.88 284.135 2319.02 277.052 2327.12 267.945C2331.17 262.885 2334.2 258.837 2337.24 254.789C2339.26 251.754 2341.29 246.694 2344.32 244.67C2352.42 237.587 2361.53 231.515 2370.63 226.455C2381.76 221.396 2392.9 214.312 2403.01 207.229C2411.11 202.169 2419.21 200.145 2428.31 199.133C2439.44 198.121 2450.58 196.098 2460.69 193.062C2469.8 189.014 2479.92 189.014 2488.02 192.05C2491.05 193.062 2493.08 193.062 2496.11 192.05C2503.2 190.026 2512.3 190.026 2520.4 192.05C2527.48 193.062 2534.57 193.062 2541.65 193.062C2545.7 193.062 2549.74 192.05 2552.78 197.109C2555.82 203.181 2561.89 202.169 2566.95 202.169C2574.03 202.169 2582.13 201.157 2586.17 209.253C2587.19 210.265 2589.21 211.276 2591.23 211.276C2596.29 211.276 2601.35 213.3 2604.39 218.36C2613.5 227.467 2623.62 237.587 2633.73 246.694C2635.76 248.718 2639.81 251.754 2642.84 252.766C2650.94 257.825 2652.96 256.813 2652.96 247.706C2652.96 242.646 2651.95 237.587 2658.02 232.527C2660.04 230.503 2659.03 225.443 2659.03 221.396C2660.04 213.3 2666.12 207.229 2673.2 205.205C2674.21 205.205 2675.22 206.217 2676.24 205.205C2682.31 203.181 2688.38 201.157 2694.45 199.133C2700.52 204.193 2707.61 202.169 2714.69 202.169C2721.77 202.169 2727.84 202.169 2734.93 202.169C2741 204.193 2747.07 205.205 2754.15 205.205C2756.18 205.205 2758.2 206.217 2760.23 205.205C2772.37 203.181 2774.39 204.193 2777.43 214.312C2778.44 217.348 2778.44 221.396 2780.46 223.42C2783.5 225.443 2786.54 227.467 2786.54 230.503C2786.54 233.539 2782.49 235.563 2780.46 238.599C2778.44 241.634 2776.42 245.682 2775.4 250.742C2775.4 253.778 2778.44 256.813 2780.46 259.849C2781.48 261.873 2783.5 262.885 2784.51 264.909C2786.54 265.921 2787.55 267.945 2787.55 269.968C2787.55 271.992 2786.54 274.016 2784.51 275.028C2780.46 279.076 2776.42 282.112 2777.43 289.195C2778.44 292.231 2777.43 295.267 2782.49 297.29C2788.56 299.314 2788.56 307.41 2783.5 313.481L2782.49 314.493C2779.45 317.529 2775.4 320.565 2775.4 323.601C2775.4 326.636 2779.45 329.672 2781.48 332.708C2784.51 335.744 2785.52 338.78 2786.54 342.827C2786.54 345.863 2784.51 349.911 2782.49 351.935C2781.48 353.958 2780.46 353.958 2778.44 355.982C2774.39 361.042 2772.37 364.078 2778.44 369.137C2786.54 377.233 2784.51 384.316 2779.45 391.4C2776.42 396.459 2776.42 402.531 2778.44 407.591C2782.49 415.686 2781.48 424.793 2777.43 431.877C2774.39 434.913 2774.39 439.972 2777.43 444.02C2782.49 454.139 2782.49 466.283 2779.45 477.414C2777.43 487.533 2777.43 498.664 2779.45 508.784C2781.48 517.891 2781.48 526.998 2779.45 535.094C2777.43 548.249 2777.43 561.404 2778.44 573.547C2778.44 576.583 2782.49 579.619 2784.51 581.642C2787.55 584.678 2788.56 586.702 2785.52 589.738C2779.45 593.786 2776.42 601.881 2777.43 609.976C2777.43 613.012 2779.45 617.06 2783.5 618.072C2788.56 621.108 2788.56 625.155 2784.51 630.215C2781.48 634.263 2777.43 637.299 2777.43 643.37C2778.44 647.418 2778.44 650.454 2783.5 652.477C2785.52 653.489 2787.55 656.525 2787.55 659.561C2788.56 662.597 2786.54 665.633 2784.51 667.656C2781.48 671.704 2775.4 675.752 2775.4 679.799C2775.4 683.847 2780.46 687.895 2782.49 691.943C2784.51 693.967 2786.54 695.99 2786.54 698.014C2786.54 701.05 2784.51 704.086 2782.49 707.122ZM2780.46 225.443V224.432C2780.46 224.432 2779.45 224.432 2778.44 225.443C2778.44 225.443 2779.45 226.455 2779.45 227.467L2780.46 225.443ZM2285.63 348.899C2286.64 348.899 2287.66 347.887 2288.67 347.887L2284.62 345.863L2282.6 347.887C2283.61 347.887 2284.62 348.899 2285.63 348.899ZM2302.83 526.998C2302.83 525.986 2303.85 525.986 2303.85 525.986C2302.83 524.974 2302.83 523.963 2302.83 523.963C2301.82 523.963 2301.82 523.962 2301.82 524.974C2301.82 524.974 2301.82 525.986 2302.83 526.998ZM2310.93 341.815C2311.94 341.815 2312.95 341.815 2313.97 340.803C2312.95 340.803 2312.95 339.791 2312.95 339.791C2311.94 340.803 2310.93 340.803 2309.92 340.803C2310.93 341.815 2310.93 341.815 2310.93 341.815ZM2346.35 258.837C2346.35 259.849 2345.33 259.849 2344.32 259.849C2345.33 260.861 2345.33 260.861 2345.33 260.861C2346.35 260.861 2347.36 260.861 2347.36 259.849C2347.36 259.849 2347.36 258.837 2346.35 258.837ZM2332.18 288.183C2332.18 291.219 2330.16 296.279 2334.2 298.302L2335.22 289.195C2334.2 285.147 2337.24 281.1 2333.19 278.064C2332.18 281.1 2332.18 284.135 2332.18 288.183ZM2334.2 504.736L2335.22 503.724L2334.2 501.7C2333.19 501.7 2333.19 502.712 2333.19 502.712C2333.19 503.724 2333.19 503.724 2334.2 504.736ZM2337.24 644.382L2338.25 643.37L2336.23 642.358L2335.22 643.37C2336.23 643.37 2336.23 644.382 2337.24 644.382ZM2340.28 333.72C2340.28 334.732 2340.28 335.744 2340.28 336.756C2341.29 335.744 2343.31 335.744 2344.32 334.732C2345.33 334.732 2344.32 332.708 2345.33 330.684L2343.31 326.636C2342.3 328.66 2342.3 329.672 2341.29 330.684C2341.29 331.696 2340.28 332.708 2340.28 333.72ZM2346.35 352.947L2350.39 349.911C2349.38 349.911 2347.36 348.899 2346.35 348.899C2344.32 349.911 2343.31 349.911 2342.3 350.923L2346.35 352.947ZM2359.5 426.817L2360.51 424.793C2359.5 424.793 2358.49 424.793 2358.49 424.793C2357.48 423.782 2357.48 424.793 2357.48 424.793L2359.5 426.817ZM2368.61 426.817L2370.63 422.77L2367.6 420.746C2367.6 421.758 2366.59 422.77 2366.59 423.782C2366.59 424.793 2367.6 425.805 2368.61 426.817ZM2389.86 629.203L2390.87 628.191C2390.87 627.179 2389.86 627.179 2388.85 627.179C2388.85 627.179 2388.85 627.179 2387.84 628.191L2389.86 629.203ZM2602.36 284.135C2601.35 284.135 2600.34 285.147 2600.34 285.147L2601.35 286.159C2602.36 286.159 2602.37 285.147 2603.38 285.147L2602.36 284.135ZM2566.95 281.1L2565.94 282.112C2566.95 282.112 2566.95 283.123 2567.96 283.123L2568.97 282.112L2566.95 281.1ZM2533.55 245.682V246.694C2532.54 246.694 2532.54 246.694 2532.54 246.694C2532.54 247.706 2532.54 248.718 2533.55 249.73L2534.57 247.706L2533.55 245.682ZM2511.29 271.992H2510.28C2510.28 271.992 2510.28 271.992 2509.27 273.004L2511.29 274.016L2513.32 273.004C2512.3 271.992 2511.29 271.992 2511.29 271.992ZM2502.18 249.73C2501.17 249.73 2501.17 250.742 2501.17 251.754C2501.17 251.754 2501.17 251.754 2502.18 252.766L2503.2 250.742L2502.18 249.73ZM2451.59 293.243C2450.58 293.243 2449.56 293.243 2447.54 294.255C2448.55 294.255 2448.55 296.279 2449.56 296.279C2450.58 296.279 2452.6 295.267 2453.61 295.267C2452.6 294.255 2452.6 293.243 2451.59 293.243ZM2424.27 245.682V246.694H2423.25C2423.25 247.706 2423.25 248.718 2424.27 249.73L2425.28 247.706L2424.27 245.682ZM2414.15 315.505C2414.15 315.505 2413.13 315.505 2413.13 316.517L2415.16 317.529L2416.17 316.517C2415.16 315.505 2415.16 315.505 2414.15 315.505ZM2445.52 651.466C2446.53 650.454 2446.53 650.454 2446.53 650.454C2446.53 649.442 2446.53 648.43 2445.52 648.43L2444.5 649.442L2445.52 651.466ZM2489.03 704.086C2490.04 704.086 2490.04 703.074 2490.04 703.074C2490.04 702.062 2490.04 702.062 2489.03 701.05V702.062C2489.03 703.074 2489.03 703.074 2489.03 704.086ZM2557.84 681.823C2557.84 681.823 2558.85 680.811 2559.86 680.811C2558.85 680.811 2558.85 679.799 2558.85 679.799C2557.84 679.799 2556.83 680.811 2556.83 680.811C2556.83 680.811 2556.83 681.823 2557.84 681.823ZM2636.77 582.654L2637.78 580.63C2636.77 580.63 2635.76 580.63 2635.76 580.63C2634.75 579.619 2634.75 580.63 2634.75 580.63L2636.77 582.654ZM2652.96 476.402C2653.97 473.366 2658.02 469.318 2656 466.283C2652.96 457.175 2651.95 447.056 2652.96 436.937C2652.96 430.865 2652.96 423.782 2652.96 417.71C2653.97 411.638 2651.95 406.579 2647.9 402.531C2644.87 398.483 2642.84 393.424 2643.85 388.364C2643.85 381.281 2642.84 373.185 2638.79 367.114C2629.69 346.875 2614.51 329.672 2596.29 316.517C2588.2 308.422 2577.07 303.362 2564.92 302.35C2558.85 302.35 2553.79 301.338 2547.72 299.314C2539.63 296.279 2531.53 296.279 2523.43 299.314C2520.4 299.314 2518.37 299.314 2515.34 299.314C2508.26 299.314 2501.17 299.314 2494.09 299.314C2484.98 299.314 2476.89 302.35 2470.81 308.422C2466.77 312.469 2461.71 316.517 2456.65 317.529C2452.6 318.541 2450.58 322.589 2450.58 325.624C2450.58 331.696 2447.54 333.72 2441.47 333.72C2435.4 332.708 2432.36 335.744 2431.35 341.815C2431.35 347.887 2427.3 351.935 2422.24 351.935C2416.17 351.935 2416.17 354.97 2415.16 358.006C2414.15 362.054 2412.12 366.102 2409.09 369.137C2403.01 376.221 2402 386.34 2407.06 393.424C2411.11 400.507 2409.09 402.531 2404.03 405.567C2393.91 409.615 2392.9 418.722 2391.88 428.841C2391.88 429.853 2392.9 432.889 2393.91 432.889C2400.99 434.913 2397.96 438.96 2396.94 441.996C2392.9 452.116 2391.88 462.235 2400.99 469.318C2406.05 472.354 2404.03 475.39 2400.99 478.426C2392.9 486.521 2391.88 491.581 2397.96 498.664C2403.01 504.736 2405.04 512.831 2404.03 519.915C2405.04 532.058 2408.07 543.189 2414.15 553.308C2419.21 561.404 2425.28 568.487 2432.36 575.571C2440.46 583.666 2449.56 590.75 2459.68 595.809C2462.72 599.857 2467.78 601.881 2472.84 600.869C2480.93 599.857 2489.03 602.893 2495.1 608.965C2501.17 616.048 2506.23 615.036 2515.34 609.976C2517.36 607.953 2519.39 607.953 2521.41 607.953C2525.46 606.941 2530.52 607.953 2533.55 609.976C2540.64 615.036 2543.67 614.024 2550.76 608.965C2553.79 605.929 2558.85 603.905 2562.9 603.905C2578.08 603.905 2593.26 597.833 2603.38 586.702C2606.41 584.678 2607.42 580.63 2610.46 580.63C2618.56 578.607 2620.58 570.511 2624.63 564.44C2629.69 559.38 2632.72 551.285 2631.71 544.201C2630.7 539.141 2634.75 538.129 2636.77 535.094C2641.83 531.046 2645.88 524.974 2647.9 517.891C2648.91 514.855 2649.93 510.807 2649.93 506.76C2649.93 496.64 2650.94 486.521 2652.96 476.402ZM2380.75 785.04L2381.76 783.016L2380.75 778.969C2379.74 779.98 2378.73 780.992 2378.73 780.992C2379.74 783.016 2379.74 784.028 2380.75 785.04ZM2394.92 882.185L2399.98 881.173C2397.96 879.149 2395.93 877.126 2393.91 876.114C2393.91 875.102 2391.88 877.126 2390.87 878.138L2394.92 882.185ZM2424.27 813.374L2425.28 811.35L2424.27 810.338C2423.25 811.35 2423.25 811.35 2423.25 812.362C2423.25 812.362 2423.25 813.374 2424.27 813.374ZM2601.35 825.517C2602.36 825.517 2602.36 825.517 2602.36 824.505C2602.36 823.493 2602.36 823.493 2601.35 822.482L2600.34 823.493L2601.35 825.517ZM2644.87 778.969L2646.89 776.945L2644.87 775.933C2644.87 776.945 2644.87 776.945 2644.87 777.957C2643.85 777.957 2644.87 778.969 2644.87 778.969ZM2654.99 759.742L2656 758.73L2653.97 757.718L2652.96 758.73C2653.97 758.73 2654.99 759.742 2654.99 759.742ZM2658.02 438.96L2659.03 436.937L2658.02 435.925C2657.01 436.937 2657.01 437.949 2657.01 437.949C2657.01 437.949 2657.01 438.96 2658.02 438.96ZM2676.24 660.573C2677.25 659.561 2677.25 659.561 2677.25 658.549C2677.25 658.549 2677.25 657.537 2676.24 657.537L2675.22 659.561L2676.24 660.573ZM2686.35 551.285H2685.34C2686.35 551.285 2686.35 550.273 2686.35 549.261C2687.37 549.261 2686.35 548.249 2686.35 548.249L2684.33 550.273L2686.35 551.285ZM2688.38 881.173C2689.39 881.173 2689.39 881.173 2690.4 880.161L2689.39 879.149C2688.38 879.149 2688.38 880.161 2687.37 880.161L2688.38 881.173ZM2698.5 825.517L2699.51 824.505L2698.5 822.482C2698.5 823.493 2697.49 823.493 2697.49 823.493C2697.49 824.505 2697.49 825.517 2698.5 825.517ZM2701.53 690.931L2702.55 689.919C2702.55 689.919 2701.53 689.919 2700.52 688.907C2700.52 688.907 2700.52 689.919 2699.51 689.919L2701.53 690.931ZM2710.64 261.873C2711.65 260.861 2712.67 259.849 2712.67 259.849C2711.65 257.825 2711.65 256.813 2710.64 255.801L2708.62 257.825L2710.64 261.873ZM2719.75 252.766C2720.76 251.754 2720.76 251.754 2720.76 251.754C2720.76 250.742 2720.76 249.73 2719.75 249.73L2718.74 250.742L2719.75 252.766ZM2723.8 429.853L2724.81 428.841C2723.8 427.829 2723.8 427.829 2722.78 427.829C2722.78 427.829 2721.77 427.829 2721.77 428.841L2723.8 429.853ZM2729.87 604.917L2730.88 603.905L2729.87 601.881C2728.86 601.881 2728.86 601.881 2728.86 602.893C2728.86 602.893 2728.86 603.905 2729.87 604.917ZM2732.9 426.817L2733.92 424.793L2732.9 423.782C2731.89 424.793 2731.89 425.805 2731.89 425.805C2731.89 425.805 2731.89 426.817 2732.9 426.817ZM2754.15 293.243L2755.17 292.231L2754.15 290.207C2754.15 290.207 2753.14 290.207 2753.14 291.219C2754.15 291.219 2754.15 292.231 2754.15 293.243ZM2767.31 438.96L2768.32 437.949C2767.31 437.949 2767.31 436.937 2766.3 436.937L2765.29 437.949L2767.31 438.96ZM2766.3 270.98C2767.31 269.968 2767.31 269.968 2768.32 269.968C2768.32 268.956 2767.31 268.956 2767.31 268.956C2766.3 268.956 2766.3 268.956 2765.29 269.968L2766.3 270.98Z" fill="black"/>
<path d="M3313.69 588.726C3311.66 593.786 3312.68 598.845 3315.71 603.905C3316.72 604.917 3316.72 606.941 3316.72 608.965C3316.72 610.988 3315.71 613.012 3313.69 614.024C3307.62 620.096 3302.56 627.179 3299.52 634.263C3292.44 646.406 3284.34 656.525 3275.23 665.633C3271.19 668.668 3268.15 671.704 3272.2 677.776C3275.23 681.823 3270.17 686.883 3265.11 683.847C3260.06 679.8 3257.02 681.823 3251.96 683.847C3238.8 689.919 3225.65 697.002 3213.51 705.098C3212.49 706.11 3210.47 706.11 3209.46 706.11C3202.38 706.11 3198.33 708.134 3197.32 716.229C3197.32 719.265 3195.29 721.289 3192.26 722.301C3189.22 722.301 3186.18 721.289 3185.17 719.265C3177.08 710.157 3169.99 712.181 3160.89 716.229C3159.87 717.241 3157.85 718.253 3155.83 718.253C3146.72 718.253 3136.6 719.265 3127.49 721.289C3124.46 722.301 3120.41 722.301 3117.37 720.277C3109.28 717.241 3100.17 717.241 3092.08 719.265C3086 720.277 3079.93 721.289 3073.86 722.301C3071.84 722.301 3068.8 722.301 3066.78 723.312C3063.74 725.336 3060.71 729.384 3058.68 729.384C3055.65 729.384 3052.61 725.336 3050.59 722.301C3041.48 713.193 3039.45 713.193 3029.34 721.289C3026.3 722.301 3024.28 724.324 3021.24 724.324C3020.23 725.336 3017.19 723.312 3017.19 722.301C3017.19 717.241 3017.19 715.217 3012.13 715.217C3007.07 715.217 3003.03 713.193 2998.98 712.181C2994.93 710.157 2989.87 709.145 2985.82 707.122C2980.76 705.098 2975.7 706.11 2971.66 709.145C2966.6 712.181 2961.54 709.145 2958.5 703.074C2955.46 699.026 2951.42 694.978 2946.36 692.955C2939.27 688.907 2932.19 683.847 2926.12 678.788C2919.04 672.716 2908.92 670.692 2903.86 662.597C2892.73 665.633 2893.74 657.537 2890.7 650.454C2888.68 644.382 2882.61 640.334 2880.58 635.275C2877.55 628.191 2873.5 621.108 2870.46 614.024C2869.45 613.012 2868.44 610.988 2867.43 608.965C2867.43 602.893 2863.38 596.821 2858.32 592.774C2851.24 585.69 2851.24 585.69 2855.28 576.583C2857.31 574.559 2858.32 571.523 2858.32 568.487C2857.31 562.416 2860.34 557.356 2861.36 551.285C2862.37 546.225 2865.4 544.201 2870.46 544.201C2878.56 545.213 2888.68 544.201 2896.77 541.165C2899.81 540.153 2903.86 543.189 2907.9 543.189C2914.99 544.201 2922.07 544.201 2929.15 543.189C2934.21 541.165 2940.29 541.165 2946.36 543.189C2954.45 544.201 2962.55 545.213 2970.64 544.201C2981.78 544.201 2983.8 546.225 2982.79 556.344C2982.79 567.475 2985.82 578.607 2988.86 588.726C2988.86 589.738 2989.87 590.75 2989.87 590.75C2998.98 597.833 3006.06 606.941 3015.17 613.012C3022.25 619.084 3031.36 622.12 3041.48 623.132C3047.55 623.132 3053.62 625.155 3058.68 629.203C3062.73 631.227 3065.77 633.251 3070.82 629.203C3072.85 628.191 3076.9 628.191 3078.92 627.179C3080.94 625.155 3083.98 624.143 3087.02 625.155C3090.05 625.155 3092.08 627.179 3094.1 629.203C3096.12 632.239 3101.18 633.251 3105.23 631.227C3111.3 627.179 3117.37 629.203 3122.43 628.191C3140.65 629.203 3157.85 622.12 3171.01 609.976C3173.03 607.953 3176.07 607.953 3177.08 606.941C3182.14 602.893 3185.17 597.833 3188.21 592.774C3190.23 583.666 3191.24 575.571 3191.24 567.475C3193.27 560.392 3190.23 553.308 3183.15 551.285C3178.09 549.261 3175.05 544.201 3176.07 539.141C3176.07 534.082 3173.03 531.046 3166.96 532.058C3159.87 532.058 3153.8 532.058 3153.8 521.939C3153.8 519.915 3151.78 517.891 3150.77 516.879C3142.67 513.843 3134.58 511.819 3126.48 510.807C3115.35 510.807 3104.22 508.784 3093.09 503.724C3091.06 502.712 3088.03 500.688 3086 500.688C3081.96 502.712 3077.91 504.736 3074.87 507.772C3069.81 510.807 3067.79 510.807 3064.75 505.748C3063.74 504.736 3063.74 501.7 3062.73 500.688C3059.69 498.664 3056.66 494.617 3053.62 494.617C3048.56 494.617 3041.48 491.581 3036.42 497.652C3033.38 501.7 3031.36 501.7 3029.34 495.628C3026.3 489.557 3018.2 490.569 3012.13 488.545C3010.11 487.533 3007.07 487.533 3005.05 486.521C2996.95 482.473 2988.86 478.426 2980.76 484.497C2977.73 486.521 2973.68 484.497 2971.66 482.473C2963.56 471.342 2948.38 470.33 2938.26 461.223C2937.25 460.211 2934.21 460.211 2931.18 460.211C2925.11 460.211 2919.04 462.235 2919.04 452.116C2918.02 447.056 2911.95 444.02 2906.89 445.032C2902.84 446.044 2898.8 443.008 2898.8 437.949C2898.8 431.877 2894.75 429.853 2891.71 426.817C2886.65 422.77 2887.67 422.77 2882.61 411.638C2876.53 401.519 2873.5 389.376 2873.5 376.221C2873.5 375.209 2872.49 374.197 2871.47 373.185C2866.41 366.102 2863.38 358.006 2864.39 348.899C2864.39 335.744 2866.42 321.577 2870.46 308.422C2871.47 303.362 2871.47 298.302 2869.45 293.243C2869.45 288.183 2870.46 283.123 2872.49 279.076C2886.65 262.885 2899.81 247.706 2913.98 232.527C2918.02 227.467 2923.08 223.42 2929.15 220.384C2932.19 216.336 2936.24 213.3 2941.3 211.276C2948.38 209.253 2954.45 204.193 2961.54 202.169C2968.62 200.145 2971.66 193.062 2979.75 195.086C2985.82 197.109 2991.89 193.062 2997.97 192.05C3004.04 190.026 3010.11 190.026 3016.18 189.014C3017.19 189.014 3019.22 189.014 3020.23 188.002C3024.28 181.931 3030.35 182.942 3036.42 182.942C3041.48 182.942 3046.54 182.942 3052.61 182.942C3056.66 183.954 3060.71 181.931 3063.74 179.907C3064.75 176.871 3067.79 175.859 3070.82 175.859C3073.86 175.859 3075.88 177.883 3077.91 179.907C3079.93 182.942 3083.98 185.978 3088.03 185.978C3092.08 186.99 3096.12 185.978 3099.16 182.942C3102.19 180.919 3106.24 180.919 3110.29 178.895C3111.3 177.883 3112.31 176.871 3114.34 178.895C3122.43 186.99 3132.55 182.942 3141.66 180.919C3144.7 180.919 3146.72 179.907 3148.74 181.931C3154.81 191.038 3164.93 195.086 3175.05 192.05C3180.11 192.05 3186.18 193.062 3190.23 197.109C3194.28 201.157 3203.39 201.157 3208.45 205.205C3212.49 209.253 3218.57 212.288 3224.64 213.3C3229.7 214.312 3233.75 216.336 3236.78 219.372C3239.82 225.443 3245.89 227.467 3251.96 226.455C3257.02 225.443 3258.03 228.479 3257.02 231.515C3257.02 233.539 3257.02 234.551 3257.02 236.575C3258.03 242.646 3260.06 244.67 3265.11 244.67C3272.2 245.682 3278.27 244.67 3276.25 253.778C3279.28 258.837 3282.32 264.909 3287.38 265.921C3293.45 267.945 3292.44 273.004 3290.41 275.028C3286.37 280.088 3289.4 284.135 3291.43 288.183C3292.44 291.219 3294.46 293.243 3294.46 295.267C3294.46 303.362 3298.51 311.457 3305.59 316.517C3315.71 326.636 3315.71 327.648 3305.59 338.78C3302.56 342.827 3299.52 346.875 3295.47 350.923C3291.43 352.947 3286.37 354.97 3282.32 355.982C3278.27 358.006 3274.22 359.018 3272.2 364.078C3269.16 373.185 3264.1 372.173 3260.06 364.078C3259.04 360.03 3256.01 358.006 3252.97 356.994C3242.85 354.97 3242.85 354.97 3236.78 361.042L3231.72 365.09C3231.72 366.102 3229.7 367.114 3228.69 367.114C3227.67 367.114 3226.66 366.102 3225.65 365.09C3221.6 359.018 3214.52 355.982 3207.44 356.994C3200.35 358.006 3195.29 354.97 3191.24 349.911C3187.2 342.827 3180.11 336.756 3182.14 326.636C3184.16 319.553 3177.08 315.505 3174.04 310.446C3163.92 298.302 3150.77 288.183 3135.59 281.1C3133.56 280.088 3130.53 280.088 3128.5 282.112C3120.41 288.183 3116.36 287.171 3110.29 279.076C3109.28 276.04 3106.24 274.016 3102.19 273.004C3099.16 273.004 3095.11 274.016 3093.09 277.052C3092.08 278.064 3090.05 280.088 3089.04 281.1C3087.02 282.112 3086 283.123 3083.98 283.123C3081.96 283.123 3080.94 282.112 3078.92 281.1C3074.87 277.052 3071.84 268.956 3064.75 270.98C3060.71 271.992 3056.66 277.052 3051.6 279.076C3047.55 281.1 3043.5 285.147 3038.44 281.1C3033.38 276.04 3029.34 282.111 3024.28 283.123C3016.18 284.135 3009.1 289.195 3003.03 295.267C2998.98 303.362 2994.93 311.457 2991.89 320.565C2991.89 321.577 2992.91 323.601 2992.91 325.624C2993.92 327.648 2995.94 330.684 2994.93 330.684C2987.85 338.78 2992.91 347.887 2995.94 354.97C2998.98 362.054 3007.07 367.114 3014.16 373.185C3019.22 378.245 3026.3 380.269 3033.38 379.257C3039.45 378.245 3045.53 380.269 3049.57 385.328C3054.63 389.376 3061.72 392.412 3068.8 391.4C3074.87 391.4 3081.96 390.388 3087.02 396.459C3088.03 398.483 3093.09 397.471 3097.13 397.471C3107.25 397.471 3117.37 399.495 3126.48 402.531C3138.62 406.579 3150.77 408.603 3163.92 406.579C3165.95 406.579 3168.98 403.543 3171.01 404.555C3174.04 405.567 3176.07 408.603 3178.09 410.626C3184.16 414.674 3191.24 417.71 3199.34 419.734C3209.46 421.758 3218.57 427.829 3229.7 425.805H3230.71C3237.79 436.937 3253.98 435.925 3261.07 447.056C3264.1 452.116 3270.17 455.151 3275.23 454.139C3279.28 453.127 3280.29 457.175 3282.32 460.211C3285.35 466.283 3287.38 473.366 3295.47 475.39C3296.48 475.39 3297.5 476.402 3297.5 477.414C3297.5 487.533 3305.59 493.605 3307.62 502.712C3307.62 506.76 3309.64 510.807 3310.65 515.867C3311.66 519.915 3313.69 523.963 3316.72 526.998C3320.77 531.046 3318.75 536.106 3319.76 541.165C3319.76 545.213 3319.76 549.261 3319.76 557.356C3320.77 568.487 3318.75 579.619 3313.69 588.726ZM3127.49 232.527L3126.48 233.539L3127.49 235.563C3128.5 235.563 3128.5 234.551 3128.5 234.551C3128.5 233.539 3128.5 233.539 3127.49 232.527ZM3071.84 189.014C3070.82 190.026 3069.81 190.026 3069.81 191.038C3070.82 193.062 3070.82 194.074 3071.84 195.086L3073.86 192.05L3071.84 189.014ZM3006.06 223.42C3005.05 223.42 3005.05 224.432 3005.05 224.432L3007.07 225.443L3008.09 224.432C3007.07 224.432 3006.06 224.432 3006.06 223.42ZM2896.77 416.698L2898.8 415.686L2896.77 413.662C2896.77 413.662 2895.76 413.662 2895.76 414.674C2896.77 414.674 2896.77 415.686 2896.77 416.698ZM2934.21 447.056C2935.23 447.056 2935.23 446.044 2936.24 446.044L2935.23 445.032L2933.2 446.044L2934.21 447.056ZM2974.69 450.092C2975.7 450.092 2975.7 449.08 2976.72 449.08L2975.7 448.068C2974.69 448.068 2974.69 449.08 2973.68 449.08L2974.69 450.092ZM3083.98 421.758C3083.98 421.758 3084.99 421.758 3086 420.746C3084.99 420.746 3084.99 419.734 3084.99 419.734C3083.98 420.746 3082.97 420.746 3082.97 420.746C3082.97 421.758 3082.97 421.758 3083.98 421.758ZM2928.14 550.273C2929.15 550.273 2929.15 549.261 2929.15 549.261C2929.15 548.249 2929.15 548.249 2928.14 547.237L2927.13 548.249C2928.14 549.261 2928.14 549.261 2928.14 550.273ZM2959.51 680.811L2960.52 678.788L2959.51 677.776C2959.51 678.788 2958.5 679.799 2958.5 679.799C2958.5 680.811 2959.51 680.811 2959.51 680.811ZM3071.84 680.811C3072.85 680.811 3072.85 679.799 3072.85 679.799L3070.82 678.788L3069.81 679.799C3070.82 679.799 3071.84 680.811 3071.84 680.811ZM3105.23 686.883C3106.24 686.883 3107.25 685.871 3107.25 685.871L3106.24 684.859C3105.23 684.859 3105.23 685.871 3104.22 685.871L3105.23 686.883ZM3183.15 650.454H3184.16C3184.16 649.442 3185.17 649.442 3184.16 649.442C3184.16 648.43 3184.16 647.418 3183.15 646.406C3183.15 647.418 3183.15 647.418 3183.15 647.418C3183.15 648.43 3183.15 649.442 3183.15 650.454ZM3193.27 656.525C3193.27 655.513 3194.28 655.513 3194.28 655.513C3193.27 654.501 3193.27 653.489 3193.27 653.489C3192.26 653.489 3192.26 653.489 3192.26 654.501C3192.26 654.501 3192.26 655.513 3193.27 656.525ZM3226.66 593.786C3227.67 592.774 3228.69 592.774 3228.69 592.774L3227.67 590.75L3225.65 592.774L3226.66 593.786Z" fill="black"/>
</svg>
