<svg width="6806" height="230" viewBox="0 0 6806 230" fill="none" xmlns="http://www.w3.org/2000/svg">
<path d="M3445.02 225.394C3450.84 228.465 3462.5 230 3474.16 230C3485.81 230 3497.47 228.465 3503.29 225.394C3520.78 219.253 3544.09 216.182 3573.23 214.647C3602.37 213.111 3631.51 216.182 3654.82 220.788C3672.3 225.394 3701.44 225.394 3718.93 220.788C3759.72 213.111 3812.17 213.111 3852.97 219.253C3864.62 222.323 3887.93 223.859 3899.59 223.859C3917.07 220.788 3940.38 216.182 3957.87 211.576C3969.52 208.505 3975.35 203.899 3981.18 200.829C4004.49 196.223 4033.63 191.617 4039.46 183.94C4045.28 179.334 4021.97 171.657 4004.49 165.516C3987.01 159.375 3987.01 151.698 3998.66 145.557C4021.97 136.345 4045.28 127.133 4010.32 114.85C3998.66 111.78 4010.32 105.638 4010.32 101.032C4010.32 78.0023 4010.32 53.437 4010.32 30.407C4010.32 24.2657 4010.32 19.6597 3998.66 15.0537C3975.35 7.37705 3969.52 4.30639 3940.38 8.91238C3893.76 18.1244 3829.65 19.6597 3783.03 10.4477C3771.38 7.37705 3748.06 5.84172 3742.24 7.37705C3707.27 15.0537 3672.3 10.4477 3631.51 11.983C3584.88 11.983 3532.43 11.983 3479.98 15.0537C3445.02 18.1244 3404.22 16.589 3369.25 13.5184C3316.8 10.4477 3264.35 10.4477 3217.73 15.0537C3159.45 18.1244 3107 18.1244 3054.55 15.0537C2996.27 11.983 2937.99 11.983 2879.71 15.0537C2827.26 18.1244 2774.81 18.1244 2716.53 15.0537C2681.57 11.983 2640.77 16.589 2605.8 7.37705C2605.8 5.84172 2582.49 7.37705 2576.67 8.91238C2530.04 22.7304 2477.59 18.1244 2430.97 11.983C2401.83 7.37705 2372.69 7.37705 2343.55 10.4477C2296.93 15.0537 2244.48 13.5184 2203.68 8.91238C2186.2 5.84172 2162.89 7.37705 2151.23 10.4477C2110.44 18.1244 2057.99 19.6597 2017.19 11.983C1988.05 5.84172 1947.26 5.84172 1918.12 11.983C1883.15 19.6597 1830.7 19.6597 1795.73 11.983C1778.25 7.37705 1754.94 5.84172 1731.63 7.37705C1690.83 11.983 1655.87 13.5184 1615.07 11.983C1568.45 10.4477 1527.65 11.983 1486.86 16.589C1463.55 18.1244 1434.41 18.1244 1411.1 16.589C1346.99 11.983 1277.05 11.983 1212.95 15.0537C1166.33 18.1244 1113.87 16.589 1061.42 13.5184C1014.8 10.4477 956.522 8.91238 909.9 11.983C869.105 15.0537 822.482 16.589 781.687 16.589C770.031 16.589 758.375 19.6597 746.72 19.6597C740.892 19.6597 735.064 13.5184 729.236 11.983C688.441 10.4477 641.819 13.5184 601.023 7.37705C595.196 5.84172 583.54 7.37705 577.712 8.91238C548.573 21.195 501.95 15.0537 461.155 16.589C449.499 16.589 437.844 15.0537 432.016 11.983C414.532 7.37705 379.565 4.30639 356.254 7.37705C303.803 13.5184 251.352 13.5184 198.901 7.37705C193.074 7.37705 181.418 7.37705 175.59 7.37705C128.967 15.0537 59.0331 15.0537 24.0661 30.407C18.2379 33.4777 11.1487 39.1314 11.1487 42.2021C11.1487 54.4847 18.2379 58.4678 18.2379 70.7504C18.2379 83.0331 11.1487 89.0195 11.1487 101.302C5.3209 107.443 0 118.701 0 124.842C0 129.448 6.58239 137.88 18.2379 142.486C53.2053 153.233 24.0661 160.91 6.58239 170.122C6.58242 178.934 -6.37092 187.011 6.58239 196.223C24.0661 200.829 41.5494 205.435 59.0331 210.041C82.3445 216.182 105.656 225.394 152.279 214.647C163.934 213.111 193.074 216.182 210.557 214.647C268.836 213.111 338.77 219.253 397.049 210.041C402.877 210.041 426.188 214.647 443.671 214.647C490.294 214.647 542.745 213.111 595.196 211.576C647.646 208.505 705.925 208.505 758.376 213.111C810.826 217.717 857.449 217.717 904.072 213.111C944.867 210.041 985.662 208.505 1020.63 211.576C1061.42 213.111 1084.74 220.788 1108.05 206.97L1119.7 210.041C1125.53 211.576 1137.19 214.647 1143.01 214.647C1189.64 211.576 1236.26 217.717 1265.4 226.929C1277.05 231.535 1288.71 228.465 1300.37 225.394C1306.19 223.859 1306.19 222.323 1312.02 220.788C1341.16 208.505 1376.13 206.97 1411.1 216.182C1434.41 220.788 1446.06 231.535 1481.03 228.465C1504.34 226.929 1521.82 220.788 1539.31 217.717C1550.96 216.182 1568.45 214.647 1574.28 213.111C1591.76 210.041 1603.41 210.041 1615.07 213.111C1626.73 216.182 1644.21 217.717 1655.87 220.788C1679.18 225.394 1696.66 225.394 1719.97 220.788C1766.59 211.576 1830.7 213.111 1877.32 222.323C1894.81 226.929 1906.46 225.394 1906.46 219.253C1912.29 217.717 1912.29 216.182 1918.12 216.182C1953.09 225.394 1964.74 203.899 1999.71 210.041C2017.19 213.111 2034.68 211.576 2052.16 213.111C2087.13 217.717 2116.27 223.859 2157.06 216.182C2174.54 213.111 2209.51 214.647 2232.82 214.647C2331.9 214.647 2425.14 216.182 2524.21 214.647C2553.35 214.647 2582.49 211.576 2611.63 211.576C2646.6 210.041 2675.74 210.041 2704.88 211.576C2757.33 214.647 2809.78 216.182 2856.4 214.647C2885.54 216.182 2908.85 216.182 2932.16 211.576C2949.65 208.505 2984.62 210.041 3007.93 211.576C3037.07 211.576 3054.55 225.394 3089.52 219.253C3118.66 214.647 3141.97 216.182 3171.11 216.182C3200.25 214.647 3229.39 217.717 3246.87 223.859C3276.01 231.535 3287.66 231.535 3305.15 220.788C3322.63 214.647 3334.29 210.041 3363.43 211.576C3375.08 211.576 3392.57 213.111 3398.39 214.647C3415.88 217.717 3433.36 222.323 3445.02 225.394ZM3695.61 19.6597C3689.79 19.6597 3683.96 21.195 3678.13 21.195C3672.3 21.195 3666.47 21.195 3654.82 19.6597C3666.47 18.1244 3666.47 16.589 3672.3 16.589C3678.13 18.1244 3689.79 18.1244 3695.61 19.6597ZM3800.52 24.2657L3777.2 27.3363L3748.06 24.2657C3753.89 22.7304 3759.72 22.7304 3771.38 21.195C3777.2 22.7304 3788.86 22.7304 3800.52 24.2657ZM3917.07 36.5483L3911.24 41.1543L3887.93 38.0837C3893.76 38.0837 3899.59 36.5483 3905.42 36.5483C3911.24 35.013 3917.07 36.5483 3917.07 36.5483ZM997.318 56.5076L991.49 58.043L979.834 56.5076L985.662 54.9723C991.49 54.9723 991.49 56.5076 997.318 56.5076ZM3363.43 70.3256C3357.6 70.3256 3357.6 71.8609 3357.6 71.8609C3351.77 71.8609 3345.94 70.3256 3345.94 70.3256C3345.94 70.3256 3345.94 68.7903 3351.77 68.7903C3351.77 68.7903 3357.6 70.3256 3363.43 70.3256ZM1801.56 70.3256C1801.56 70.3256 1801.56 71.8609 1795.73 71.8609C1795.73 71.8609 1789.91 70.3256 1784.08 70.3256L1789.91 68.7903L1801.56 70.3256ZM1049.77 70.3256L1043.94 71.8609C1038.11 71.8609 1038.11 70.3256 1038.11 68.7903C1038.11 68.7903 1038.11 68.7903 1043.94 67.2549L1049.77 70.3256ZM857.449 70.3256L845.793 71.8609C845.793 71.8609 845.793 70.3256 839.965 68.7903C839.965 68.7903 845.793 68.7903 845.793 67.2549L857.449 70.3256ZM1434.41 102.568C1434.41 101.032 1440.23 101.032 1440.23 101.032C1446.06 101.032 1451.89 102.568 1451.89 102.568L1446.06 104.103L1434.41 102.568ZM3852.97 104.103C3858.79 102.568 3858.79 99.4969 3858.79 101.032C3870.45 101.032 3876.28 101.032 3882.11 102.568C3882.11 102.568 3882.11 104.103 3876.28 104.103C3870.45 104.103 3858.79 104.103 3852.97 104.103ZM1993.88 84.1436L1988.05 85.6789L1976.4 84.1436C1982.23 84.1436 1982.22 82.6083 1982.22 82.6083C1988.05 82.6083 1993.88 84.1436 1993.88 84.1436ZM1941.43 88.7496C1941.43 88.7496 1941.43 90.2849 1935.6 90.2849C1935.6 90.2849 1929.77 88.7496 1923.95 88.7496L1929.77 87.2142L1941.43 88.7496ZM647.646 88.7496L641.818 90.2849C635.99 90.2849 635.99 88.7496 630.163 88.7496L635.99 87.2142L647.646 88.7496ZM3917.07 101.032C3917.07 102.568 3917.07 104.103 3911.24 104.103L3905.42 102.568L3911.24 99.4969C3917.07 101.032 3917.07 101.032 3917.07 101.032ZM2028.85 107.174C2028.85 107.174 2028.85 108.709 2023.02 108.709C2023.02 108.709 2017.19 107.174 2011.36 107.174L2017.19 105.638L2028.85 107.174ZM799.17 119.456C799.17 120.992 799.17 122.527 793.343 124.062L787.515 120.992L793.343 119.456C799.17 119.456 799.17 119.456 799.17 119.456ZM1434.41 134.81L1428.58 136.345L1416.92 134.81L1422.75 133.274C1428.58 133.274 1428.58 134.81 1434.41 134.81ZM53.2053 134.81L41.5494 136.345L35.7216 134.81C35.7216 134.81 41.5494 133.274 47.3772 133.274C47.3772 133.274 47.3772 134.81 53.2053 134.81ZM3293.49 144.021C3287.66 144.021 3287.66 145.557 3287.66 145.557C3281.84 145.557 3276.01 144.021 3276.01 144.021C3276.01 144.021 3276.01 142.486 3281.84 142.486C3281.84 142.486 3287.66 144.021 3293.49 144.021ZM1539.31 153.233L1521.82 156.304L1504.34 153.233C1510.17 151.698 1521.82 151.698 1527.65 151.698C1533.48 151.698 1533.48 153.233 1539.31 153.233ZM2046.33 191.617C2040.5 191.617 2028.85 190.081 2028.85 190.081C2034.68 188.546 2034.68 185.475 2034.68 183.94C2040.5 183.94 2046.33 185.475 2046.33 185.475C2046.33 188.546 2046.33 190.081 2046.33 191.617ZM1498.51 183.94C1510.17 183.94 1516 183.94 1521.82 185.475C1516 187.011 1516 187.011 1510.17 187.011C1498.51 187.011 1492.69 187.011 1486.86 185.475C1492.69 185.475 1498.51 183.94 1498.51 183.94ZM105.656 185.475L117.312 183.94L123.139 185.475C117.312 185.475 111.484 187.011 111.484 187.011C105.656 187.011 105.656 185.475 105.656 185.475ZM1352.82 187.011L1358.64 183.94C1358.64 183.94 1364.47 183.94 1364.47 185.475C1358.64 185.475 1358.64 187.011 1358.64 188.546L1352.82 187.011ZM1667.52 167.051V165.516C1667.52 165.516 1667.52 165.516 1673.35 165.516L1679.18 167.051L1673.35 170.122C1667.52 168.587 1667.52 167.051 1667.52 167.051ZM1749.11 167.051L1743.28 168.587L1731.63 167.051C1737.46 167.051 1737.45 165.516 1737.45 165.516C1743.28 165.516 1749.11 167.051 1749.11 167.051ZM3584.88 171.657V170.122C3573.23 176.263 3549.92 171.657 3520.78 174.728L3468.33 173.193C3485.81 167.051 3509.12 170.122 3526.61 170.122C3549.92 170.122 3567.4 170.122 3584.88 171.657ZM3823.83 188.546V187.011C3777.2 187.011 3736.41 187.011 3689.79 188.546C3683.96 187.011 3683.96 187.011 3678.13 185.475C3683.96 185.475 3683.96 183.94 3689.79 183.94C3713.1 183.94 3730.58 183.94 3753.89 183.94C3777.2 183.94 3794.69 183.94 3823.83 183.94C3823.83 183.94 3829.65 185.475 3835.48 185.475C3829.65 187.011 3823.83 188.546 3823.83 188.546ZM2611.63 190.081V188.546C2617.46 188.546 2623.29 187.011 2629.12 188.546C2634.94 188.546 2634.94 190.081 2640.77 191.617L2617.46 193.152L2611.63 190.081ZM3276.01 190.081L3281.84 188.546L3293.49 190.081C3287.66 190.081 3287.66 191.617 3287.66 191.617C3281.84 191.617 3276.01 190.081 3276.01 190.081ZM3911.24 190.081L3899.59 196.223C3893.76 194.687 3887.93 193.152 3887.93 191.617C3887.93 191.617 3893.76 190.081 3893.76 188.546L3911.24 190.081ZM193.074 199.293L198.901 197.758C204.729 197.758 204.729 199.293 204.729 200.829C204.729 200.829 204.729 200.829 198.901 202.364L193.074 199.293ZM2407.66 200.829C2407.66 200.829 2401.83 199.293 2396 199.293L2407.66 197.758L2413.49 199.293C2413.49 199.293 2413.49 200.829 2407.66 200.829ZM3503.29 199.293L3485.81 202.364L3468.33 199.293C3474.16 197.758 3479.98 197.758 3491.64 197.758C3491.64 197.758 3497.47 199.293 3503.29 199.293Z" fill="black"/>
<path d="M6218.08 219.253C6223.9 222.324 6235.56 223.859 6247.22 223.859C6258.87 223.859 6270.53 222.324 6276.36 219.253C6293.84 213.112 6317.15 210.041 6346.29 208.506C6375.43 206.97 6404.57 210.041 6427.88 214.647C6445.36 219.253 6474.5 219.253 6491.99 214.647C6532.78 206.97 6585.23 206.97 6626.03 213.112C6637.68 216.182 6660.99 217.718 6672.65 217.718C6690.13 214.647 6713.44 210.041 6730.93 205.435C6742.58 202.364 6748.41 197.758 6754.24 194.688C6777.55 190.082 6780 193.152 6785.83 185.476C6791.65 180.87 6795.03 165.516 6777.55 159.375C6760.07 153.234 6760.07 145.557 6771.72 139.416C6795.03 130.204 6810.78 129.72 6783.38 108.709C6771.72 105.638 6806 55.6924 6806 51.0864C6806 28.0565 6783.38 47.2959 6783.38 24.2659C6783.38 18.1246 6783.38 13.5186 6771.72 8.91261C6748.41 1.23596 6742.58 -1.8347 6713.44 2.77129C6666.82 11.9833 6602.72 13.5186 6556.09 4.30662C6544.44 1.23596 6521.13 -0.299374 6515.3 1.23596C6480.33 8.91261 6445.36 4.30662 6404.57 5.84195C6357.95 5.84195 6305.49 5.84195 6253.04 8.91261C6218.08 11.9833 6177.28 10.4479 6142.32 7.37728C6089.86 4.30662 6037.41 4.30662 5990.79 8.91261C5932.51 11.9833 5880.06 11.9833 5827.61 8.91261C5769.33 5.84195 5711.05 5.84195 5652.78 8.91261C5600.33 11.9833 5547.87 11.9833 5489.6 8.91261C5454.63 5.84195 5413.83 10.4479 5378.87 1.23596C5378.87 -0.299374 5355.56 1.23596 5349.73 2.77129C5303.1 16.5893 5250.65 11.9833 5204.03 5.84195C5174.89 1.23596 5145.75 1.23596 5116.61 4.30662C5069.99 8.91261 5017.54 7.37728 4976.74 2.77129C4959.26 -0.299374 4935.95 1.23596 4924.29 4.30662C4883.5 11.9833 4831.05 13.5186 4790.25 5.84195C4761.11 -0.299374 4720.32 -0.299374 4691.18 5.84195C4656.21 13.5186 4603.76 13.5186 4568.79 5.84195C4551.31 1.23596 4528 -0.299374 4504.69 1.23596C4463.89 5.84195 4428.93 7.37728 4388.13 5.84195C4341.51 4.30662 4300.71 5.84195 4259.92 10.4479C4236.61 11.9833 4207.47 11.9833 4184.16 10.4479C4120.05 5.84195 4050.12 5.84195 3986.01 8.91261C3939.39 11.9833 3886.94 10.4479 3834.48 7.37728C3787.86 4.30662 3729.58 2.77129 3682.96 5.84195C3642.17 8.91261 3595.54 10.4479 3554.75 10.4479C3543.09 10.4479 3531.44 13.5186 3519.78 13.5186C3513.95 13.5186 3508.12 7.37728 3502.3 5.84195C3461.5 4.30662 3414.88 7.37728 3374.08 1.23596C3368.26 -0.299374 3356.6 1.23596 3350.77 2.77129C3321.63 15.0539 3275.01 8.91261 3234.22 10.4479C3222.56 10.4479 3210.9 8.91261 3205.08 5.84195C3187.59 1.23596 3152.63 -1.8347 3129.31 1.23596C3076.86 7.37728 3024.41 7.37728 2971.96 1.23596C2966.13 1.23596 2954.48 1.23596 2948.65 1.23596C2902.03 8.91261 2832.09 8.91261 2797.13 24.2659C2791.3 27.3366 2791.3 30.4072 2791.3 33.4779C2791.3 45.7605 2791.3 56.5079 2791.3 68.7905C2791.3 81.0732 2791.3 93.3558 2791.3 105.638C2785.47 111.78 2773.82 116.386 2773.82 122.527C2773.82 127.133 2779.64 131.739 2791.3 136.345C2826.27 147.092 2797.13 154.769 2779.64 163.981C2744.68 176.264 2744.68 180.87 2779.64 190.082C2797.13 194.688 2814.61 199.294 2832.09 203.9C2855.41 210.041 2878.72 219.253 2925.34 208.506C2936.99 206.97 2966.13 210.041 2983.62 208.506C3041.9 206.97 3111.83 213.112 3170.11 203.9C3175.94 203.9 3199.25 208.506 3216.73 208.506C3263.35 208.506 3315.81 206.97 3368.26 205.435C3420.71 202.364 3478.99 202.364 3531.44 206.97C3583.89 211.576 3630.51 211.576 3677.13 206.97C3717.93 203.9 3758.72 202.364 3793.69 205.435C3834.48 206.97 3857.8 214.647 3881.11 200.829L3892.76 203.9C3898.59 205.435 3910.25 208.506 3916.07 208.506C3962.7 205.435 4009.32 211.576 4038.46 220.788C4050.12 225.394 4061.77 222.324 4073.43 219.253C4079.25 217.718 4079.25 216.182 4085.08 214.647C4114.22 202.364 4149.19 200.829 4184.16 210.041C4207.47 214.647 4219.12 225.394 4254.09 222.324C4277.4 220.788 4294.88 214.647 4312.37 211.576C4324.02 210.041 4341.51 208.506 4347.34 206.97C4364.82 203.9 4376.48 203.9 4388.13 206.97C4399.79 210.041 4417.27 211.576 4428.93 214.647C4452.24 219.253 4469.72 219.253 4493.03 214.647C4539.66 205.435 4603.76 206.97 4650.38 216.182C4667.87 220.788 4679.52 219.253 4679.52 213.112C4685.35 211.576 4685.35 210.041 4691.18 210.041C4726.15 219.253 4737.8 197.758 4772.77 203.9C4790.25 206.97 4807.74 205.435 4825.22 206.97C4860.19 211.576 4889.33 217.718 4930.12 210.041C4947.6 206.97 4982.57 208.506 5005.88 208.506C5104.96 208.506 5198.2 210.041 5297.28 208.506C5326.42 208.506 5355.55 205.435 5384.69 205.435C5419.66 203.9 5448.8 203.9 5477.94 205.435C5530.39 208.506 5582.84 210.041 5629.46 208.506C5658.6 210.041 5681.91 210.041 5705.23 205.435C5722.71 202.364 5757.68 203.9 5780.99 205.435C5810.13 205.435 5827.61 219.253 5862.58 213.112C5891.72 208.506 5915.03 210.041 5944.17 210.041C5973.31 208.506 6002.45 211.576 6019.93 217.718C6049.07 225.394 6060.73 225.394 6078.21 214.647C6095.69 208.506 6107.35 203.9 6136.49 205.435C6148.14 205.435 6165.63 206.97 6171.45 208.506C6188.94 211.576 6206.42 216.182 6218.08 219.253ZM6468.68 13.5186C6462.85 13.5186 6457.02 15.0539 6451.19 15.0539C6445.36 15.0539 6439.54 15.0539 6427.88 13.5186C6439.54 11.9833 6439.54 10.4479 6445.36 10.4479C6451.19 11.9833 6462.85 11.9833 6468.68 13.5186ZM6573.58 18.1246L6550.27 21.1953L6521.13 18.1246C6526.95 16.5893 6532.78 16.5893 6544.44 15.0539C6550.26 16.5893 6561.92 16.5893 6573.58 18.1246ZM6690.13 30.4072L6684.31 35.0132L6660.99 31.9426C6666.82 31.9426 6672.65 30.4072 6678.48 30.4072C6684.31 28.8719 6690.13 30.4072 6690.13 30.4072ZM3770.38 50.3665L3764.55 51.9019L3752.89 50.3665L3758.72 48.8312C3764.55 48.8312 3764.55 50.3665 3770.38 50.3665ZM6136.49 64.1845C6130.66 64.1845 6130.66 65.7199 6130.66 65.7199C6124.83 65.7199 6119 64.1845 6119 64.1845C6119 64.1845 6119 62.6492 6124.83 62.6492C6124.83 62.6492 6130.66 64.1845 6136.49 64.1845ZM4574.62 64.1845C4574.62 64.1845 4574.62 65.7199 4568.79 65.7199C4568.79 65.7199 4562.97 64.1845 4557.14 64.1845L4562.97 62.6492L4574.62 64.1845ZM3822.83 64.1845L3817 65.7199C3811.17 65.7199 3811.17 64.1845 3811.17 62.6492C3811.17 62.6492 3811.17 62.6492 3817 61.1139L3822.83 64.1845ZM3630.51 64.1845L3618.85 65.7199C3618.85 65.7199 3618.85 64.1845 3613.03 62.6492C3613.03 62.6492 3618.85 62.6492 3618.85 61.1139L3630.51 64.1845ZM4207.47 96.4265C4207.47 94.8911 4213.29 94.8911 4213.29 94.8911C4219.12 94.8911 4224.95 96.4265 4224.95 96.4265L4219.12 97.9618L4207.47 96.4265ZM6626.03 97.9618C6631.86 96.4265 6631.85 93.3558 6631.85 94.8911C6643.51 94.8911 6649.34 94.8911 6655.17 96.4265C6655.17 96.4265 6655.17 97.9618 6649.34 97.9618C6643.51 97.9618 6631.86 97.9618 6626.03 97.9618ZM4766.94 78.0025L4761.11 79.5378L4749.46 78.0025C4755.29 78.0025 4755.29 76.4672 4755.29 76.4672C4761.11 76.4672 4766.94 78.0025 4766.94 78.0025ZM4714.49 82.6085C4714.49 82.6085 4714.49 84.1438 4708.66 84.1438C4708.66 84.1438 4702.84 82.6085 4697.01 82.6085L4702.84 81.0732L4714.49 82.6085ZM3420.71 82.6085L3414.88 84.1438C3409.05 84.1438 3409.05 82.6085 3403.22 82.6085L3409.05 81.0732L3420.71 82.6085ZM6690.13 94.8911C6690.13 96.4265 6690.13 97.9618 6684.31 97.9618L6678.48 96.4265L6684.31 93.3558C6690.13 94.8911 6690.13 94.8911 6690.13 94.8911ZM4801.91 101.032C4801.91 101.032 4801.91 102.568 4796.08 102.568C4796.08 102.568 4790.25 101.032 4784.42 101.032L4790.25 99.4971L4801.91 101.032ZM3572.23 113.315C3572.23 114.85 3572.23 116.386 3566.4 117.921L3560.58 114.85L3566.4 113.315C3572.23 113.315 3572.23 113.315 3572.23 113.315ZM4207.47 128.668L4201.64 130.204L4189.98 128.668L4195.81 127.133C4201.64 127.133 4201.64 128.668 4207.47 128.668ZM2826.27 128.668L2814.61 130.204L2808.78 128.668C2808.78 128.668 2814.61 127.133 2820.44 127.133C2820.44 127.133 2820.44 128.668 2826.27 128.668ZM6066.55 137.88C6060.73 137.88 6060.73 139.416 6060.73 139.416C6054.9 139.416 6049.07 137.88 6049.07 137.88C6049.07 137.88 6049.07 136.345 6054.9 136.345C6054.9 136.345 6060.73 137.88 6066.55 137.88ZM4312.37 147.092L4294.88 150.163L4277.4 147.092C4283.23 145.557 4294.88 145.557 4300.71 145.557C4306.54 145.557 4306.54 147.092 4312.37 147.092ZM4819.39 185.476C4813.56 185.476 4801.91 183.94 4801.91 183.94C4807.74 182.405 4807.74 179.334 4807.74 177.799C4813.56 177.799 4819.39 179.334 4819.39 179.334C4819.39 182.405 4819.39 183.94 4819.39 185.476ZM4271.57 177.799C4283.23 177.799 4289.06 177.799 4294.88 179.334C4289.06 180.87 4289.06 180.87 4283.23 180.87C4271.57 180.87 4265.75 180.87 4259.92 179.334C4265.75 179.334 4271.57 177.799 4271.57 177.799ZM2878.72 179.334L2890.37 177.799L2896.2 179.334C2890.37 179.334 2884.54 180.87 2884.54 180.87C2878.72 180.87 2878.72 179.334 2878.72 179.334ZM4125.88 180.87L4131.71 177.799C4131.71 177.799 4137.53 177.799 4137.53 179.334C4131.71 179.334 4131.71 180.87 4131.71 182.405L4125.88 180.87ZM4440.58 160.91V159.375C4440.58 159.375 4440.58 159.375 4446.41 159.375L4452.24 160.91L4446.41 163.981C4440.58 162.446 4440.58 160.91 4440.58 160.91ZM4522.17 160.91L4516.34 162.446L4504.69 160.91C4510.52 160.91 4510.52 159.375 4510.52 159.375C4516.34 159.375 4522.17 160.91 4522.17 160.91ZM6357.95 165.516V163.981C6346.29 170.122 6322.98 165.516 6293.84 168.587L6241.39 167.052C6258.87 160.91 6282.18 163.981 6299.67 163.981C6322.98 163.981 6340.46 163.981 6357.95 165.516ZM6596.89 182.405V180.87C6550.26 180.87 6509.47 180.87 6462.85 182.405C6457.02 180.87 6457.02 180.87 6451.19 179.334C6457.02 179.334 6457.02 177.799 6462.85 177.799C6486.16 177.799 6503.64 177.799 6526.95 177.799C6550.26 177.799 6567.75 177.799 6596.89 177.799C6596.89 177.799 6602.72 179.334 6608.54 179.334C6602.72 180.87 6596.89 182.405 6596.89 182.405ZM5384.69 183.94V182.405C5390.52 182.405 5396.35 180.87 5402.18 182.405C5408.01 182.405 5408.01 183.94 5413.83 185.476L5390.52 187.011L5384.69 183.94ZM6049.07 183.94L6054.9 182.405L6066.55 183.94C6060.73 183.94 6060.73 185.476 6060.73 185.476C6054.9 185.476 6049.07 183.94 6049.07 183.94ZM6684.31 183.94L6672.65 190.082C6666.82 188.546 6660.99 187.011 6660.99 185.476C6660.99 185.476 6666.82 183.94 6666.82 182.405L6684.31 183.94ZM2966.13 193.152L2971.96 191.617C2977.79 191.617 2977.79 193.152 2977.79 194.688C2977.79 194.688 2977.79 194.688 2971.96 196.223L2966.13 193.152ZM5180.72 194.688C5180.72 194.688 5174.89 193.152 5169.06 193.152L5180.72 191.617L5186.55 193.152C5186.55 193.152 5186.55 194.688 5180.72 194.688ZM6276.36 193.152L6258.87 196.223L6241.39 193.152C6247.22 191.617 6253.04 191.617 6264.7 191.617C6264.7 191.617 6270.53 193.152 6276.36 193.152Z" fill="black"/>
</svg>
